<svg width="43" height="51" viewBox="0 0 43 51" fill="none" xmlns="http://www.w3.org/2000/svg">
<path d="M19.1308 0.448242C17.9495 0.448242 16.7077 0.545165 15.3629 0.732953C10.7954 1.36901 5.8342 3.2166 2.9144 6.95418C-0.362794 11.14 -0.792889 17.549 1.20614 22.3891C2.02998 24.376 3.35661 25.9813 4.81651 27.5018C4.93767 27.108 5.06488 26.7082 5.21026 26.3024C1.74528 22.0499 0.975951 18.4274 1.76951 15.6288C2.9144 11.5944 7.39708 9.28638 11.6677 9.28638C15.5446 9.28638 19.2338 11.1885 20.0758 15.4349C20.409 17.1129 20.6937 19.2937 19.2277 21.5653C19.7547 21.6864 21.0147 22.9707 19.149 23.6007C19.2459 27.1807 17.0167 28.3802 15.1145 28.3802C14.4846 28.3802 13.8848 28.2469 13.4184 28.0288C14.5633 28.8345 16.3019 30.2399 16.0838 32.3903H16.1201C16.9319 32.3903 18.0041 31.6998 18.7673 29.5735C18.7189 29.3918 18.6643 29.2101 18.5856 29.0404C18.5008 28.8587 18.3917 28.6891 18.3069 28.5074C18.2221 28.3438 18.1676 28.1621 18.1797 27.9803C18.1979 27.7865 18.2888 27.6048 18.3857 27.4412C18.4887 27.2655 18.6098 27.102 18.7067 26.9203C18.8037 26.7446 18.8703 26.5629 18.9491 26.3811C19.0884 26.048 19.2943 25.6542 19.682 25.5755C19.7305 25.5633 19.7729 25.5633 19.8214 25.5633C20.1242 25.5633 20.415 25.739 20.6997 25.8178C21.0208 25.9086 21.4206 25.8965 21.6811 26.1388C21.9355 26.3751 22.0021 26.7506 22.2323 27.0111C22.4504 27.2534 22.8078 27.4049 22.8744 27.7502C22.9471 28.1681 22.6563 28.5619 22.4867 28.9193C22.3171 29.2706 22.2747 29.9854 22.2747 30.0218V29.8703C21.881 31.5604 21.6992 33.5292 20.6089 35.0194C20.7482 34.8558 20.8209 34.7528 20.8209 34.7528C21.4266 34.5893 21.8991 34.4984 22.2989 34.4984C22.3413 34.4984 22.3898 34.4984 22.4322 34.4984C22.305 34.1531 22.3232 33.7594 22.517 33.4504C22.9835 32.7296 23.4378 31.9966 23.9587 31.3121C24.2435 30.9365 24.5342 30.5549 24.8735 30.2338C25.2793 29.8522 25.7579 29.5796 26.2243 29.2888C26.3515 29.2101 26.4787 29.1252 26.6059 29.0404C26.6302 29.0223 26.6544 29.0102 26.6665 28.998C26.6786 28.9859 26.6968 28.9677 26.7271 28.9435C26.8725 28.8163 27.0179 28.6891 27.1511 28.5498C27.2844 28.4104 27.4116 28.2651 27.5388 28.1136C27.557 28.0894 27.5752 28.0712 27.5873 28.0591C27.5994 28.0409 27.6115 28.0228 27.6358 27.9925C27.6782 27.9258 27.7266 27.8653 27.769 27.7986C28.0356 27.4049 28.2657 26.9869 28.4717 26.5568C28.5081 26.4841 28.5383 26.4114 28.5747 26.3387C28.5868 26.3084 28.5989 26.2842 28.611 26.266C28.6171 26.2479 28.6292 26.2236 28.6413 26.1933C28.714 26.0055 28.7867 25.8238 28.8533 25.636C29.1683 24.7395 29.4106 23.8066 29.974 23.0252C30.495 22.3043 31.131 21.747 31.8337 21.22C32.4334 20.7778 33.0634 20.384 33.6692 19.9479C33.6874 19.9358 33.8449 19.8146 33.8873 19.7843C33.9297 19.748 33.9781 19.7116 33.9781 19.7116C34.1053 19.6086 34.2265 19.4996 34.3476 19.3845C34.493 19.2512 34.6202 19.0998 34.7535 18.9605C34.7656 18.9484 34.7899 18.9181 34.802 18.8999C34.8383 18.8454 34.8747 18.7909 34.911 18.7363C35.1715 18.3305 35.2381 18.1366 35.3714 17.7065C35.5168 17.2462 35.6379 16.7737 35.8136 16.3193C35.9287 16.0165 36.068 15.7196 36.2013 15.4228C36.3043 15.2047 36.3527 15.1017 36.3951 14.9927C36.4739 14.7867 36.5284 14.5808 36.5829 14.3688C36.6253 14.1931 36.6435 14.0841 36.7283 13.9205C36.8252 13.6055 37.0373 13.3147 37.2977 13.1512C37.4855 13.03 37.6794 12.9816 37.8672 12.9816C38.2912 12.9816 38.7031 13.242 38.9636 13.5934C39.2665 13.9932 39.2059 14.5747 38.9575 14.9806L38.9394 15.0048V15.023C38.9212 15.1502 38.8727 15.2835 38.8364 15.4046C38.7395 15.7136 38.6062 16.0104 38.4729 16.3072C38.4002 16.4708 38.3275 16.6283 38.2548 16.7858C38.2548 16.7858 38.2306 16.8464 38.2064 16.9069C38.1822 16.9675 38.1519 17.0281 38.1519 17.0281C38.1519 17.0281 38.1519 17.016 38.164 16.9917C37.7642 18.0215 37.5946 19.1362 36.9646 20.063C36.0135 21.4562 34.5597 22.268 33.227 23.2311C33.1725 23.2735 33.1179 23.3099 33.0634 23.3523L33.0755 23.3402C33.0755 23.3402 32.9362 23.4492 32.918 23.4674C32.7787 23.5825 32.6394 23.7036 32.5061 23.8308C32.3728 23.9581 32.2517 24.0853 32.1305 24.2185C32.1305 24.2185 32.07 24.2973 32.0336 24.3397C32.0033 24.3881 31.9609 24.4366 31.9609 24.4427C31.6702 24.8849 31.6035 25.0848 31.44 25.5815C31.2946 26.0116 31.1553 26.4417 30.9856 26.8657C30.5677 27.9016 30.0467 28.8769 29.3622 29.7189C31.7186 30.0218 34.3113 31.724 36.0377 34.6922L36.0741 34.7528V34.3106C36.1104 33.9472 36.1104 33.6079 35.965 33.2687C35.8075 32.9052 35.5834 32.5539 35.5652 32.142C35.541 31.5544 36.0317 31.4332 36.5466 31.4332C36.8252 31.4332 37.1039 31.4696 37.3098 31.4817C37.6248 31.5059 37.8853 31.5907 38.1458 31.7603C38.4366 31.9542 38.7334 32.1359 39.0302 32.3176C39.3573 32.5175 39.5633 32.778 39.6723 33.1475C39.7935 33.5837 39.8177 34.0683 39.7632 34.5166C39.7087 34.983 39.527 35.4131 39.3513 35.8493C39.1817 36.2794 39.0484 36.7155 38.9394 37.1638C38.7819 37.6484 38.582 38.1148 38.3154 38.551C38.1095 38.8902 37.8126 39.181 37.5279 39.4475C37.1281 39.8231 36.6072 40.023 36.0741 40.023C35.8015 40.023 35.5228 39.9685 35.2624 39.8594C35.0564 39.7746 34.8686 39.6292 34.7293 39.4596C34.6021 39.3082 34.3234 38.8417 34.905 38.551C34.8444 38.5631 34.7838 38.5692 34.7232 38.5692C33.6934 38.5692 31.9185 37.0426 30.4768 34.7468C32.1548 40.3804 31.2643 44.4451 29.0108 47.0317C32.1245 46.0867 34.9958 44.3361 37.2008 41.9433C40.4053 38.4722 41.8894 33.9108 42.0469 29.2464C42.2166 24.3397 41.3988 19.4814 39.5936 14.9382C38.5638 12.3576 37.2372 10.3344 35.7712 8.61398C34.0448 6.58466 31.1431 4.12525 29.0956 3.07727C25.5883 1.2842 22.62 0.448242 19.1308 0.448242Z" fill="#FF5C2E"/>
<path d="M37.8671 12.9754C37.6733 12.9754 37.4795 13.0299 37.2977 13.145C37.0433 13.3086 36.8252 13.5993 36.7283 13.9143C36.6435 14.0779 36.6253 14.1869 36.5829 14.3626C36.5284 14.5746 36.4739 14.7806 36.3951 14.9865C36.3527 15.0956 36.3043 15.1986 36.2013 15.4166C36.068 15.7135 35.9348 16.0103 35.8136 16.3132C35.6379 16.7675 35.5168 17.2339 35.3714 17.7004C35.2321 18.1365 35.1715 18.3243 34.911 18.7302C34.8747 18.7847 34.8383 18.8392 34.802 18.8937C34.7838 18.9119 34.7656 18.9422 34.7535 18.9543C34.6202 19.0997 34.493 19.2451 34.3476 19.3784C34.2265 19.4935 34.1053 19.6025 33.9781 19.7055C33.9781 19.7055 33.9297 19.7479 33.8873 19.7782C33.8449 19.8085 33.6934 19.9296 33.6692 19.9417C33.0695 20.3779 32.4334 20.7716 31.8337 21.2138C31.125 21.7408 30.4889 22.2982 29.974 23.019C29.4106 23.8005 29.1683 24.7333 28.8533 25.6299C28.7867 25.8177 28.714 26.0054 28.6413 26.1872C28.6292 26.2175 28.6171 26.2417 28.611 26.2599C28.605 26.278 28.5929 26.3023 28.5747 26.3326C28.5383 26.4053 28.5081 26.4779 28.4717 26.5506C28.2657 26.9807 28.0356 27.3987 27.769 27.7925C27.7266 27.8591 27.6782 27.9197 27.6357 27.9863C27.6176 28.0166 27.5994 28.0408 27.5873 28.0529C27.5752 28.0651 27.557 28.0832 27.5388 28.1075C27.4116 28.2528 27.2844 28.4043 27.1511 28.5436C27.0179 28.6829 26.8725 28.8101 26.7271 28.9374C26.7029 28.9616 26.6847 28.9798 26.6665 28.9919C26.6483 29.004 26.6302 29.0161 26.6059 29.0343C26.4787 29.1191 26.3576 29.2039 26.2243 29.2826C25.7579 29.5734 25.2793 29.846 24.8735 30.2276C24.5282 30.5487 24.2374 30.9303 23.9587 31.3059C23.4378 31.9904 22.9835 32.7234 22.517 33.4443C22.3232 33.7471 22.305 34.147 22.4322 34.4922C22.9653 34.5225 23.3651 34.7164 23.7588 35.1041C23.9042 31.4089 26.0305 29.64 28.605 29.64C28.8533 29.64 29.1078 29.6582 29.3682 29.6885C30.0528 28.8465 30.5737 27.8712 30.9917 26.8353C31.1613 26.4113 31.3006 25.9812 31.446 25.5511C31.6096 25.0483 31.6762 24.8484 31.967 24.4123C31.967 24.4123 32.0033 24.3578 32.0397 24.3093C32.076 24.2669 32.1366 24.1881 32.1366 24.1881C32.2577 24.0488 32.3789 23.9216 32.5122 23.8005C32.6454 23.6732 32.7787 23.5581 32.9241 23.437C32.9483 23.4188 33.0876 23.3098 33.0816 23.3098L33.0695 23.3219C33.124 23.2795 33.1785 23.2432 33.233 23.2007C34.5657 22.2376 36.0196 21.4259 36.9706 20.0326C37.6067 19.1058 37.7702 17.9912 38.17 16.9613C38.1579 16.9916 38.1579 16.9977 38.1579 16.9977C38.1579 16.9977 38.1882 16.9371 38.2124 16.8765C38.2367 16.816 38.2609 16.7554 38.2609 16.7554C38.3336 16.5979 38.4123 16.4343 38.479 16.2768C38.6122 15.98 38.7455 15.6832 38.8424 15.3742C38.8788 15.2531 38.9272 15.1198 38.9394 14.9926V14.9744L38.9575 14.9502C39.212 14.5443 39.2665 13.9628 38.9636 13.563C38.697 13.2117 38.2912 12.9512 37.8671 12.9512" fill="#FF2900"/>
<path d="M4.82256 27.502C1.20008 39.5204 8.4087 47.7043 16.3079 49.8669C17.7254 50.2546 19.1611 50.4484 20.5543 50.4484C23.8921 50.4484 26.9936 49.3277 29.0108 47.0198C28.0477 47.3105 27.0542 47.5286 26.0547 47.6619C25.2975 47.7588 24.5342 47.8133 23.7649 47.8133C20.0091 47.8133 16.1867 46.6078 13.4729 43.9667C10.8621 41.4346 10.4562 38.5148 9.7111 34.9347C9.62024 34.3653 9.49908 33.9837 9.45062 33.7777C8.87514 31.5061 7.20323 29.8947 5.59794 28.2894C5.33746 28.029 5.08304 27.7685 4.82862 27.502" fill="#FFC263"/>
<path d="M11.6677 9.28653C7.40313 9.28653 2.9144 11.5945 1.7695 15.6289C0.975948 18.4276 1.73921 22.05 5.21632 26.2965C5.07093 26.7023 4.94372 27.1021 4.82257 27.4959C5.07699 27.7624 5.33141 28.0229 5.59189 28.2834C7.19717 29.8947 8.86909 31.5 9.44457 33.7716C9.49909 33.9776 9.62024 34.3592 9.70505 34.9286C10.4501 38.5087 10.8621 41.4285 13.4669 43.9606C16.1807 46.5957 20.0031 47.8072 23.7588 47.8072C24.5282 47.8072 25.2975 47.7588 26.0486 47.6558C27.0482 47.5225 28.0356 47.3105 29.0048 47.0137C31.2582 44.4331 32.1487 40.3624 30.4707 34.7287C31.9125 37.0246 33.6874 38.5511 34.7172 38.5511C34.7777 38.5511 34.8444 38.5511 34.8989 38.533C34.3174 38.8237 34.6021 39.2902 34.7232 39.4416C34.8625 39.6112 35.0503 39.7566 35.2563 39.8414C35.5168 39.9504 35.7954 40.005 36.068 40.005C36.6011 40.005 37.1221 39.8051 37.5219 39.4295C37.8126 39.1569 38.1034 38.8722 38.3094 38.533C38.5759 38.0968 38.7758 37.6304 38.9333 37.1458C39.0363 36.6975 39.1756 36.2613 39.3452 35.8312C39.5209 35.3951 39.7026 34.965 39.7571 34.4985C39.8056 34.0503 39.7874 33.5657 39.6663 33.1295C39.5633 32.76 39.3513 32.4995 39.0242 32.2996C38.7273 32.1179 38.4305 31.9362 38.1397 31.7423C37.8732 31.5666 37.6188 31.4879 37.3038 31.4637C37.0978 31.4455 36.8131 31.4152 36.5405 31.4152C36.0317 31.4152 35.5349 31.5363 35.5592 32.1239C35.5774 32.5359 35.8015 32.8872 35.959 33.2507C36.1044 33.596 36.1044 33.9291 36.062 34.2926V34.7348L36.0317 34.6742C34.3052 31.6999 31.7126 30.0038 29.3561 29.7009C28.8109 30.3733 28.1688 30.9609 27.3934 31.4334C27.1633 31.5727 26.9331 31.7181 26.7089 31.8574L26.6786 31.8756L26.6605 31.8937L26.5333 32.0149C26.3939 32.1542 26.2607 32.2996 26.1395 32.4511C26.0971 32.5056 26.0547 32.5601 26.0123 32.6086C26.0547 32.5601 26.0668 32.5359 26.0668 32.5359C26.0668 32.5359 25.9396 32.6934 25.9335 32.7115C25.4671 33.3476 25.0552 34.0139 24.6251 34.6742C24.3767 35.0559 23.983 35.2679 23.5711 35.2679C23.3651 35.2679 23.1591 35.2194 22.9592 35.1104C22.7169 34.9832 22.5352 34.7469 22.4383 34.4864C22.3959 34.4864 22.3535 34.4864 22.305 34.4864C21.9052 34.4864 21.4327 34.5712 20.8269 34.7409C20.8269 34.7409 20.7542 34.8438 20.6149 35.0074C21.7113 33.5233 21.8931 31.5485 22.2747 29.8584V30.0098C22.2808 29.9735 22.3232 29.2587 22.4928 28.9073C22.6624 28.5499 22.9592 28.1562 22.8805 27.7382C22.8199 27.3868 22.4564 27.2415 22.2384 26.9992C22.0021 26.7387 21.9415 26.3631 21.6871 26.1268C21.4327 25.8845 21.0329 25.8906 20.7058 25.8058C20.4211 25.727 20.1303 25.5514 19.8274 25.5514C19.779 25.5514 19.7365 25.5514 19.6881 25.5635C19.2943 25.6422 19.0944 26.036 18.9551 26.3692C18.8764 26.5509 18.8097 26.7326 18.7128 26.9083C18.6159 27.09 18.5008 27.2536 18.3917 27.4292C18.2948 27.5928 18.204 27.7745 18.1858 27.9684C18.1676 28.1562 18.2282 28.3318 18.313 28.4954C18.4039 28.6771 18.5129 28.8407 18.5916 29.0285C18.6704 29.1981 18.7249 29.3798 18.7734 29.5615C18.0041 31.6878 16.9379 32.3784 16.1262 32.3784H16.0898C16.3079 30.2279 14.5694 28.8225 13.4245 28.0168C13.8909 28.2349 14.4845 28.3682 15.1206 28.3682C17.0288 28.3682 19.2519 27.1688 19.155 23.5887C21.0208 22.9587 19.7608 21.6745 19.2338 21.5533C20.6997 19.2817 20.415 17.1009 20.0818 15.4229C19.2398 11.1765 15.5507 9.27441 11.6738 9.27441" fill="#FFFF4B"/>
<path d="M28.5989 29.6523C26.0305 29.6523 23.8982 31.4151 23.7528 35.1164C23.353 34.7287 22.9592 34.5288 22.4262 34.5045C22.5231 34.7711 22.7048 35.0013 22.9471 35.1285C23.147 35.2315 23.359 35.286 23.5589 35.286C23.9709 35.286 24.3646 35.074 24.613 34.6923C25.0431 34.032 25.455 33.3657 25.9214 32.7296C25.9336 32.7115 26.0608 32.554 26.0547 32.554C26.0547 32.554 26.0365 32.5721 26.0002 32.6267C26.0426 32.5721 26.085 32.5176 26.1274 32.4692C26.2546 32.3177 26.3818 32.1723 26.5211 32.033L26.6484 31.9119L26.6665 31.8937L26.6968 31.8755C26.927 31.7301 27.1511 31.5908 27.3813 31.4515C28.1567 30.979 28.7988 30.3914 29.344 29.719C29.0896 29.6887 28.8352 29.6705 28.5808 29.6705" fill="#FFAB00"/>
</svg>
