<?xml version="1.0" encoding="utf-8"?>
<!-- Generator: Adobe Illustrator 28.0.0, SVG Export Plug-In . SVG Version: 6.00 Build 0)  -->
<svg version="1.1" id="Layer_1" xmlns="http://www.w3.org/2000/svg" xmlns:xlink="http://www.w3.org/1999/xlink" x="0px" y="0px"
	 width="95.2px" height="93.2px" viewBox="0 0 95.2 93.2" style="enable-background:new 0 0 95.2 93.2;" xml:space="preserve">
<style type="text/css">
	.st0{fill:#F4683D;}
	.st1{fill:#64AFFE;}
	.st2{fill:#60473D;}
	.st3{fill:#2778FD;}
	.st4{fill:#17A27B;}
	.st5{fill:#096F7B;}
	.st6{fill:#02673B;}
	.st7{fill:#FFFFFF;}
</style>
<path class="st0" d="M47.5,0c-6.9,0-12.8,4.5-14.9,10.7c5.1,2.6,8.6,7.9,8.6,14.1c0,1.8-0.3,3.5-0.8,5c2.1,1.1,4.5,1.7,7.1,1.7
	s5.1-0.6,7.2-1.8c-0.6-1.7-1-3.5-1-5.4c0-6.1,3.4-11.4,8.5-14C60.1,4.3,54.3,0,47.5,0"/>
<path class="st1" d="M25.5,9C16.8,9,9.7,16.1,9.7,24.8c0,2.5,0.6,4.9,1.6,7c1.4-0.4,2.9-0.6,4.4-0.6c6.2,0,11.5,3.5,14.1,8.7
	c5-1.4,8.9-5.2,10.5-10.1c-5.1-2.6-8.6-7.9-8.6-14.1c0-1.8,0.3-3.5,0.8-5C30.4,9.6,28,9,25.5,9"/>
<path class="st2" d="M32.6,10.7c-0.5,1.6-0.8,3.3-0.8,5c0,6.1,3.5,11.5,8.6,14.1c0.5-1.6,0.8-3.3,0.8-5
	C41.2,18.6,37.7,13.3,32.6,10.7"/>
<path class="st1" d="M11.4,31.8C4.8,33.7,0,39.8,0,46.9s5,13.5,11.8,15.2c2.5-5.5,8-9.3,14.4-9.3c1.4,0,2.7,0.2,4,0.5
	c0.9-2,1.4-4.2,1.4-6.5c0-2.5-0.6-4.9-1.7-7c-1.4,0.4-2.9,0.6-4.4,0.6C19.3,40.5,13.9,37,11.4,31.8"/>
<path class="st3" d="M15.8,31.2c-1.5,0-3,0.2-4.4,0.6c2.6,5.2,7.9,8.7,14.1,8.7c1.5,0,3-0.2,4.4-0.6C27.3,34.7,21.9,31.2,15.8,31.2"
	/>
<path class="st1" d="M30.1,53.4c-2.5,5.5-8,9.3-14.4,9.3c-1.4,0-2.7-0.2-4-0.5c-0.9,2-1.4,4.2-1.4,6.5c0,8.7,7,15.8,15.7,15.8
	c2.7,0,5.2-0.7,7.4-1.9c-0.5-1.6-0.8-3.3-0.8-5.1c0-6,3.4-11.2,8.3-13.9C39.4,58.6,35.2,54.7,30.1,53.4"/>
<path class="st3" d="M26.2,52.9c-6.4,0-11.9,3.8-14.4,9.3c1.3,0.3,2.6,0.5,4,0.5c6.4,0,11.9-3.8,14.4-9.3
	C28.9,53,27.5,52.9,26.2,52.9"/>
<path class="st1" d="M48.5,61.7c-2.7,0-5.2,0.7-7.4,1.9c0.5,1.6,0.8,3.3,0.8,5.1c0,6-3.4,11.2-8.3,13.9c2.1,6.2,8,10.6,14.9,10.6
	s12.8-4.5,14.9-10.7c-5.4-2.5-9.1-8-9.1-14.3c0-1.8,0.3-3.5,0.8-5.1C53.1,62.2,50.9,61.7,48.5,61.7"/>
<path class="st3" d="M41.1,63.5c-5,2.7-8.3,7.9-8.3,13.9c0,1.8,0.3,3.5,0.8,5.1c5-2.7,8.3-7.9,8.3-13.9
	C41.9,66.8,41.6,65.1,41.1,63.5"/>
<path class="st4" d="M65.1,53.2c-4.7,1.5-8.4,5.2-10,9.9c5.4,2.5,9.1,8,9.1,14.3c0,1.8-0.3,3.5-0.8,5.1c2,0.9,4.3,1.5,6.6,1.5
	c8.7,0,15.8-7.1,15.8-15.8c0-2.4-0.5-4.6-1.5-6.7c-1.6,0.5-3.2,0.8-4.9,0.8C73.1,62.3,67.6,58.6,65.1,53.2"/>
<path class="st5" d="M55.1,63.1c-0.5,1.6-0.8,3.3-0.8,5.1c0,6.3,3.7,11.8,9.1,14.3c0.5-1.6,0.8-3.3,0.8-5.1
	C64.2,71.1,60.5,65.6,55.1,63.1"/>
<path class="st4" d="M83.6,31.4c-2.6,5.1-7.9,8.7-14.1,8.7c-1.5,0-2.9-0.2-4.2-0.6c-1.1,2.1-1.7,4.5-1.7,7.1c0,2.4,0.5,4.6,1.5,6.7
	c1.6-0.5,3.2-0.8,4.9-0.8c6.3,0,11.8,3.7,14.3,9.1c6.3-2.1,10.8-8,10.8-15S90.3,33.2,83.6,31.4"/>
<path class="st6" d="M70.1,52.5c-1.7,0-3.4,0.3-4.9,0.8c2.5,5.4,8,9.1,14.3,9.1c1.7,0,3.4-0.3,4.9-0.8
	C81.8,56.2,76.4,52.5,70.1,52.5"/>
<path class="st1" d="M69.5,8.6c-2.6,0-5.1,0.6-7.2,1.8c0.6,1.7,1,3.5,1,5.4c0,6.1-3.4,11.4-8.5,14c1.7,4.7,5.7,8.4,10.6,9.7
	c2.6-5.1,7.9-8.7,14.1-8.7c1.5,0,2.9,0.2,4.2,0.6c1.1-2.1,1.7-4.5,1.7-7.1C85.3,15.6,78.2,8.6,69.5,8.6"/>
<path class="st2" d="M62.3,10.3c-5.1,2.6-8.5,7.9-8.5,14c0,1.9,0.3,3.8,1,5.4c5.1-2.6,8.5-7.9,8.5-14C63.3,13.8,62.9,12,62.3,10.3"
	/>
<path class="st5" d="M79.4,30.8c-6.2,0-11.5,3.5-14.1,8.7c1.3,0.4,2.8,0.6,4.2,0.6c6.2,0,11.5-3.5,14.1-8.7
	C82.3,31,80.9,30.8,79.4,30.8"/>
<path class="st7" d="M43.6,16L43.6,16c-0.1,0.3-0.1,0.6-0.1,1c0,2.2,1.8,4,4.1,4c2.2,0,4-1.8,4-4.1c0-0.3,0-0.6-0.1-1l0,0l-0.2-0.5
	l-0.6-0.9l-3.4-5l-3.1,5.2l-0.5,0.9L43.6,16L43.6,16z"/>
<path class="st7" d="M83,42.9c-2-0.5-2.9,0.6-3.4,2.1c-0.4-1.6-1.4-2.7-3.4-2.1c0,0-3,1-0.3,5c0,0,1,1.5,3.7,3.7l0,0l0,0
	c2.7-2.1,3.7-3.7,3.7-3.7C86,44,83,42.9,83,42.9z"/>
<path class="st7" d="M73.9,65.2c-2-0.6-2.9,0.6-3.4,2.1c-0.4-1.6-1.4-2.7-3.4-2.1c0,0-3,1.1-0.3,5c0,0,1,1.5,3.7,3.7l0,0l0,0
	c2.7-2.1,3.7-3.7,3.7-3.7C76.9,66.3,73.9,65.2,73.9,65.2z"/>
</svg>
