<svg width="44" height="51" viewBox="0 0 44 51" fill="none" xmlns="http://www.w3.org/2000/svg">
<path d="M8.74973 4.91052H2.93666C1.31492 4.91052 0 6.22545 0 7.85267V42.4571C0 44.0788 1.31492 45.3938 2.93666 45.3938H5.27065L4.72825 40.9285C3.71466 39.9697 3.08459 38.6109 3.07364 37.1097L3.00241 26.7766L1.6053 15.3094C1.35876 13.2986 2.27372 11.4084 3.82424 10.3181C4.76112 8.932 6.33355 8.01155 8.13062 7.9732C8.13062 7.95128 8.13062 7.92389 8.13062 7.90198L8.74973 4.916M35.0208 4.916H28.8023L29.2461 6.58705L34.0785 6.00081C34.2976 5.97342 34.5113 5.96246 34.7304 5.96246C35.87 5.96246 36.9439 6.32955 37.8205 6.95961C37.4425 5.77618 36.3303 4.92148 35.0208 4.92148" fill="#3763DA"/>
<path d="M37.815 6.94873C37.9082 7.23363 37.9575 7.53497 37.9575 7.84726V42.4517C37.9575 44.0734 36.6426 45.3884 35.0208 45.3884H5.27065L5.35831 46.0896C5.68705 48.7907 7.98268 50.7686 10.6344 50.7686C10.8481 50.7686 11.0673 50.7576 11.2864 50.7302L39.119 47.3443C42.0337 46.9882 44.1102 44.3364 43.7596 41.4217L40.012 10.636C39.8258 9.09644 38.9985 7.79247 37.8315 6.95421" fill="#59AFFF"/>
<path d="M3.82423 10.3127C2.27372 11.403 1.36423 13.2932 1.6053 15.3039L3.00241 26.7712L2.91475 13.3261C2.90927 12.2084 3.24348 11.1729 3.82423 10.3127ZM34.725 5.95154C34.5113 5.95154 34.2921 5.9625 34.073 5.98989L29.2406 6.57613L29.5694 7.81983C32.4841 7.83078 34.8455 10.1867 34.8674 13.1069L35.0263 36.8906C35.0482 39.8273 32.6813 42.227 29.7392 42.2435L8.42099 42.3859H8.38264C6.96362 42.3859 5.67061 41.8271 4.71729 40.9231L5.25969 45.3883H35.0208C36.6426 45.3883 37.9575 44.0734 37.9575 42.4517V7.8527C37.9575 7.54041 37.9082 7.23907 37.815 6.95417C36.9329 6.3241 35.8646 5.95702 34.725 5.95702" fill="#1344DA"/>
<path d="M29.5748 7.8308L29.5912 7.90202C29.5912 8.64167 28.994 9.23886 28.2544 9.23886H9.46194C8.74969 9.23886 8.16346 8.68002 8.13058 7.97325C6.339 8.00612 4.76109 8.93205 3.82421 10.3182C3.24345 11.1784 2.90924 12.2139 2.91472 13.3316L3.00238 26.7767L3.0736 37.1098C3.08456 38.6165 3.72011 39.9697 4.72822 40.9285C5.68154 41.838 6.97454 42.3914 8.39357 42.3914H8.43192L29.7501 42.2489C32.6868 42.227 35.0537 39.8328 35.0372 36.8961L34.8783 13.1124C34.8564 10.1922 32.4896 7.83628 29.5803 7.82532" fill="white"/>
<path d="M9.79619 20.5034C9.52224 20.5253 9.24282 20.4322 9.02915 20.224L6.91431 18.1804C6.51983 17.7969 6.50887 17.1668 6.89239 16.7668C7.27591 16.3669 7.90598 16.3614 8.30594 16.7449L9.714 18.1037L13.3355 14.4274C13.7245 14.0329 14.3546 14.0274 14.7491 14.4164C15.1435 14.8054 15.149 15.4355 14.76 15.83L10.4427 20.213C10.2674 20.3938 10.0373 20.4925 9.80714 20.5089L9.79619 20.5034Z" fill="#00A678"/>
<path d="M31.2897 19.4515L18.0199 19.5392C17.4775 19.5392 17.0282 19.2269 17.0282 18.8379C17.0282 18.4489 17.4666 18.1256 18.009 18.1201L31.2787 18.0325C31.8211 18.0325 32.2704 18.3448 32.2704 18.7338C32.2704 19.1228 31.8321 19.446 31.2897 19.4515Z" fill="#00A678"/>
<path d="M9.79619 28.4203C9.52224 28.4422 9.24282 28.3491 9.02915 28.1409L6.91431 26.0972C6.51983 25.7137 6.50887 25.0837 6.89239 24.6837C7.27591 24.2838 7.90598 24.2783 8.30594 24.6618L9.714 26.0205L13.3355 22.3442C13.7245 21.9498 14.3546 21.9443 14.7491 22.3333C15.1435 22.7223 15.149 23.3523 14.76 23.7468L10.4427 28.1299C10.2674 28.3107 10.0373 28.4093 9.80714 28.4258L9.79619 28.4203Z" fill="#00A678"/>
<path d="M31.2897 27.3684L18.0199 27.456C17.4775 27.456 17.0282 27.1437 17.0282 26.7547C17.0282 26.3657 17.4666 26.0425 18.009 26.037L31.2787 25.9493C31.8211 25.9493 32.2704 26.2616 32.2704 26.6506C32.2704 27.0396 31.8321 27.3629 31.2897 27.3684Z" fill="#00A678"/>
<path d="M9.79619 36.129C9.52224 36.1509 9.24282 36.0578 9.02915 35.8496L6.91431 33.806C6.51983 33.4225 6.50887 32.7924 6.89239 32.3924C7.27591 31.998 7.90598 31.987 8.30594 32.3705L9.714 33.7293L13.3355 30.053C13.7245 29.6585 14.3546 29.653 14.7491 30.042C15.1435 30.431 15.149 31.0611 14.76 31.4556L10.4427 35.8386C10.2674 36.0194 10.0373 36.1181 9.80714 36.1345L9.79619 36.129Z" fill="#00A678"/>
<path d="M31.2897 35.0771L18.0199 35.1648C17.4775 35.1648 17.0282 34.8525 17.0282 34.4635C17.0282 34.0745 17.4666 33.7512 18.009 33.7457L31.2787 33.6581C31.8211 33.6581 32.2704 33.9704 32.2704 34.3594C32.2704 34.7484 31.8321 35.0716 31.2897 35.0771Z" fill="#00A678"/>
<path d="M18.8582 0.768555C17.3789 0.768555 16.179 1.91363 16.0694 3.36553H10.1249C9.38525 3.36553 8.78806 3.96272 8.78806 4.70237L8.74422 4.91057H28.8023L28.7475 4.70237C28.7475 3.96272 28.1503 3.36553 27.4107 3.36553H21.6469C21.5373 1.91363 20.3375 0.768555 18.8582 0.768555Z" fill="#FF5C2E"/>
<path d="M28.8023 4.91052H8.74971L8.1306 7.8965C8.1306 7.8965 8.1306 7.94581 8.1306 7.96772C8.15252 7.96772 8.17991 7.96772 8.20183 7.96772L18.4089 7.90198L29.2516 6.58157L28.8078 4.91052" fill="#372427"/>
<path d="M29.2461 6.58167L18.4034 7.90207L29.5146 7.83084H29.5529C29.5529 7.83084 29.5693 7.83084 29.5748 7.83084L29.2461 6.58714" fill="#131927"/>
<path d="M29.5529 7.8308H29.5146L18.4034 7.90202L8.19634 7.96777C8.19634 7.96777 8.14703 7.96777 8.12511 7.96777C8.16347 8.66906 8.74422 9.23338 9.45648 9.23338H28.2599C28.9995 9.23338 29.5967 8.63619 29.5967 7.89654L29.5803 7.82532C29.5803 7.82532 29.5639 7.82532 29.5584 7.82532" fill="#FF5C2E"/>
</svg>
