<?xml version="1.0" encoding="utf-8"?>
<!-- Generator: Adobe Illustrator 28.0.0, SVG Export Plug-In . SVG Version: 6.00 Build 0)  -->
<svg version="1.1" id="Layer_1" xmlns="http://www.w3.org/2000/svg" xmlns:xlink="http://www.w3.org/1999/xlink" x="0px" y="0px"
	 width="93.6px" height="88.4px" viewBox="0 0 93.6 88.4" style="enable-background:new 0 0 93.6 88.4;" xml:space="preserve">
<style type="text/css">
	.st0{fill:#64AFFE;}
	.st1{opacity:0.7;fill:#4D4D4A;enable-background:new    ;}
	.st2{fill:#335980;}
	.st3{fill:#173A91;}
	.st4{opacity:0.5;fill:#173A91;enable-background:new    ;}
	.st5{fill:#3B7FFF;}
	.st6{fill:#0D2A99;}
	.st7{fill:#004953;}
	.st8{fill:#F4683D;}
	.st9{fill:#EB2F45;}
</style>
<path class="st0" d="M24.1,52.2c-1.4,0-2.9,1.5-1.9,3.1c2.4,4-2.5,7.6-5.7,8.8c-4.1,1.6-8.6,2.3-12.2,5.1C1,71.8-0.8,75.8,0.3,80
	c1.1,4.1,4.6,7.3,8.8,8.1c1,0.2,1.9,0.3,2.9,0.3c3.5,0,6.8-1.3,9.7-3.4c3.6-2.7,5.5-6.3,8.1-9.9c1.1-1.5,2.5-3,4.4-3.5
	c0.4-0.1,0.9-0.1,1.3-0.1c1.4,0,2.8,0.4,4.2,0.9c3.4,1.2,6.8,2.9,10.4,2.9c0.4,0,0.8,0,1.2-0.1c5-0.6,8.6-4.5,11.1-8.5
	c0.5-0.8,0.9-1.6,1.3-2.3c-0.2,0-0.5,0-0.7,0c-0.1,0-0.1,0-0.2,0c-1.3,0-2.5-0.3-3.5-0.8c-1.8,3.2-4.6,7.1-8.6,7.5
	c-0.3,0-0.6,0-0.8,0c-3.3,0-6.6-1.9-9.7-3c-1.6-0.5-3.2-0.8-4.8-0.8c-1.9,0-3.8,0.5-5.6,1.7c-3.1,2.2-4.7,5.7-6.9,8.7
	c-2.4,3.3-6,6.2-10.3,6.4c-0.2,0-0.4,0-0.5,0c-3.8,0-7.5-2.2-7.9-6.2c-0.4-4,3.5-6.4,6.7-7.6c4.4-1.6,9.4-2.3,12.8-5.8
	c2.9-3,4.3-7.6,2-11.3C25.4,52.5,24.7,52.2,24.1,52.2"/>
<path class="st1" d="M9.5,6.3c-5.2,5.9-7.9,13.2-7.9,20.4c0,7,2.5,13.8,7.7,18.9c0.4,0.4,0.9,0.6,1.4,0.6s1-0.2,1.4-0.6
	c0.8-0.8,0.7-2,0-2.7c-4.4-4.3-6.6-10.2-6.6-16.2c0-5.3,1.7-10.7,5-15.4C9.9,10.7,9.5,9.9,9.5,9L9.5,6.3"/>
<path class="st1" d="M40,7.4V9c0,1.2-0.6,2.2-1.5,2.8c3.1,4.6,4.7,9.8,4.7,14.9c0,6-2.2,11.8-6.6,16.2c-0.8,0.8-0.8,2,0,2.7
	c0.4,0.4,0.9,0.6,1.4,0.6s1-0.2,1.4-0.6c5.2-5.1,7.7-12,7.7-18.9C47.1,20,44.7,13.1,40,7.4"/>
<path class="st0" d="M12.8,0C11,0,9.5,1.5,9.5,3.3v3c0.4-0.4,0.8-0.9,1.2-1.3c0.4-0.4,0.9-0.6,1.4-0.6s1,0.2,1.4,0.6
	c0.8,0.8,0.8,2,0,2.7c-1.1,1.1-2.1,2.3-3,3.6c0.6,0.6,1.4,1,2.4,1c1.8,0,3.3-1.5,3.3-3.3V3.3C16.1,1.5,14.6,0,12.8,0"/>
<path class="st2" d="M12.1,4.5c-0.5,0-1,0.2-1.4,0.6c-0.4,0.4-0.8,0.8-1.2,1.3V9c0,0.9,0.4,1.7,0.9,2.3c0.9-1.2,1.9-2.4,3-3.6
	c0.8-0.8,0.7-2,0-2.7C13,4.7,12.5,4.5,12.1,4.5"/>
<path class="st0" d="M36.7,0c-1.8,0-3.3,1.5-3.3,3.3V9c0,1.8,1.5,3.3,3.3,3.3c0.7,0,1.3-0.2,1.8-0.5c-1-1.4-2.1-2.8-3.3-4
	c-0.8-0.8-0.7-2,0-2.7c0.4-0.4,0.9-0.6,1.4-0.6s1,0.2,1.4,0.6c0.8,0.8,1.5,1.5,2.1,2.3V3.3C40,1.5,38.6,0,36.7,0"/>
<path class="st2" d="M36.6,4.5c-0.5,0-1,0.2-1.4,0.6c-0.8,0.8-0.8,2,0,2.7c1.2,1.3,2.4,2.6,3.3,4C39.4,11.2,40,10.2,40,9V7.4
	c-0.7-0.8-1.4-1.6-2.1-2.3C37.6,4.7,37.1,4.5,36.6,4.5"/>
<path class="st3" d="M66.6,41c-4.3,0.5-7.7,3.8-8.2,8.1c1.3-0.9,2.9-1.3,4.6-1.3c0.1,0,0.1,0,0.2,0c4.6,0.1,8.3,3.9,8.2,8.5
	c0,0.8-0.2,1.7-0.4,2.4c3.3-1.3,5.7-4.6,5.8-8.4c0-0.2,0-0.5,0-0.8c-0.2,0-0.4,0-0.6,0H71c-2.4,0-4.4-2-4.4-4.4L66.6,41"/>
<path class="st4" d="M70.9,58.7c-1.1,0.4-2.2,0.6-3.4,0.6c-0.1,0-0.1,0-0.2,0c-0.5,0-0.9-0.1-1.3-0.1c-0.7,1.8-1.5,3.6-2.4,5.2
	C67.1,64.2,69.9,61.8,70.9,58.7 M58.4,49.1c-2.2,1.5-3.7,4-3.8,6.8c-0.1,3.3,1.8,6.3,4.7,7.7c0,0,0,0,0,0c1.1-1.9,2.1-3.9,2.8-6
	c-2.3-1.7-3.8-4.5-3.8-7.6C58.4,49.7,58.4,49.4,58.4,49.1"/>
<path class="st5" d="M62.1,57.6c-0.8,2.1-1.7,4.1-2.8,6c0,0,0,0,0,0c1.1,0.5,2.3,0.8,3.5,0.8c0.1,0,0.1,0,0.2,0c0.2,0,0.5,0,0.7,0
	c0.9-1.7,1.7-3.4,2.4-5.2C64.6,59,63.3,58.4,62.1,57.6"/>
<path class="st6" d="M63,47.8c-1.7,0-3.2,0.5-4.6,1.4c0,0.3-0.1,0.6-0.1,0.9c-0.1,3.1,1.4,5.9,3.8,7.6c1.1,0.8,2.4,1.4,3.9,1.6
	c0.4,0.1,0.9,0.1,1.3,0.1c0.1,0,0.1,0,0.2,0c1.2,0,2.3-0.2,3.4-0.6c0.2-0.8,0.4-1.6,0.4-2.4c0.1-4.6-3.6-8.4-8.2-8.5
	C63.1,47.8,63,47.8,63,47.8"/>
<rect x="22.5" y="50.2" class="st7" width="4.7" height="7.8"/>
<path class="st3" d="M27.1,58.1v-1.9h-2.7v-4h0.8v5.9H27.1v-1.9V58.1h1.9v-7.8c0-0.5-0.2-1-0.6-1.4c-0.4-0.4-0.9-0.6-1.4-0.6h-4.7
	c-0.5,0-1,0.2-1.4,0.6c-0.4,0.4-0.6,0.9-0.6,1.4v7.8c0,0.5,0.2,1,0.6,1.4S22,60,22.5,60h4.7c0.5,0,1-0.2,1.4-0.6s0.6-0.9,0.6-1.4
	H27.1z"/>
<path class="st8" d="M66.6,22.6H58c-2.4,0-4.4,2-4.4,4.4v5.1c0,2.4,2,4.4,4.4,4.4h8.6V22.6 M89.1,22.6h-8.6v14h8.6
	c2.4,0,4.4-2,4.4-4.4V27C93.6,24.6,91.6,22.6,89.1,22.6"/>
<path class="st8" d="M76.1,9.6H71c-2.4,0-4.4,2-4.4,4.4v27c0.3,0,0.7,0,1,0c0.1,0,0.1,0,0.2,0c4.8,0.1,8.7,3.9,9,8.6
	c2.2-0.3,3.8-2.2,3.8-4.4V14C80.6,11.6,78.6,9.6,76.1,9.6"/>
<path class="st9" d="M67.6,40.9c-0.3,0-0.7,0-1,0v4.2c0,2.4,2,4.4,4.4,4.4h5.1c0.2,0,0.4,0,0.6,0c-0.3-4.7-4.2-8.5-9-8.6
	C67.7,40.9,67.6,40.9,67.6,40.9"/>
<path class="st3" d="M40.8,33.6c-1,2.8-2.2,4.8-3.4,6.3c-1.8,2.3-3.8,3.5-5.9,4.2c-2.1,0.7-4.5,1-6.8,1c-0.2,0-0.3,0-0.5,0
	c-1.6,0-3.1-0.1-4.5-0.4c-2.1-0.4-3.9-1.2-5.7-2.7c-1.8-1.5-3.6-4-5.3-8c-0.7-1.8-2.8-2.6-4.6-1.9c-1.8,0.8-2.6,2.8-1.9,4.6
	c1.3,3.2,2.8,5.7,4.5,7.8c2.5,3.1,5.6,5.1,8.6,6.2c3.1,1.1,6.1,1.3,8.8,1.3c0.2,0,0.4,0,0.5,0c1.8,0,3.8-0.1,5.9-0.5
	c3.1-0.6,6.5-1.9,9.4-4.4c3-2.5,5.5-6.2,7.4-11.2c0.7-1.8-0.2-3.8-2.1-4.5C43.6,30.9,41.5,31.8,40.8,33.6L40.8,33.6z"/>
</svg>
