<svg width="24" height="24" viewBox="0 0 24 24" fill="none" xmlns="http://www.w3.org/2000/svg">
<circle cx="12" cy="12" r="11.5" fill="#FFE5EC" stroke="#C63F66"/>
<path d="M17.9996 8.90764H16.0273C16.0269 10.0059 15.5782 10.9908 14.8475 11.7114C14.1156 12.4305 13.1148 12.8722 11.9998 12.873C12.5445 12.873 12.9862 13.3078 12.9862 13.8441V14.7357C15.8306 14.2721 17.9992 11.8401 18 8.90804M11.9998 3.00041C8.68568 3.00081 6.00082 5.64465 6 8.90764C6.00041 11.8397 8.169 14.2721 11.0138 14.7353V13.8437C11.0138 13.3074 11.4555 12.8726 12.0002 12.8726C10.8848 12.8722 9.8844 12.4301 9.15247 11.711C8.42218 10.9904 7.97354 10.005 7.97272 8.90723C7.97313 7.80901 8.42177 6.82407 9.15247 6.10343C9.8844 5.38441 10.8852 4.94269 12.0002 4.94188C13.1156 4.94228 14.116 5.384 14.8479 6.10343C15.5782 6.82407 16.0269 7.80942 16.0277 8.90723H18C17.9992 5.64425 15.3143 3.00041 12.0002 3" fill="#FF8B79"/>
<path d="M12.9863 14.7353C12.6655 14.7877 12.336 14.8149 11.9999 14.8149C11.6638 14.8149 11.3348 14.7877 11.0135 14.7353V15.9232H12.9859V14.7353" fill="#FF8B79"/>
<path d="M11.9999 12.873C11.4552 12.873 11.0135 13.3078 11.0135 13.8441V14.7357C11.3344 14.7881 11.6638 14.8153 11.9999 14.8153C12.336 14.8153 12.665 14.7881 12.9863 14.7357V13.8441C12.9863 13.3078 12.5446 12.873 11.9999 12.873Z" fill="#FF422F"/>
<path d="M12.9862 17.8651H11.0139V19.4834C11.0139 20.0197 11.4556 20.4545 12.0003 20.4545C12.545 20.4545 12.9866 20.0197 12.9866 19.4834V17.8651" fill="#FF8B79"/>
<path d="M11.0139 15.9232H9.81473C9.27 15.9232 8.82837 16.3581 8.82837 16.8944C8.82837 17.4307 9.27 17.8655 9.81473 17.8655H11.0139V15.9237M14.2785 15.9237H12.9862V17.8655H14.2785C14.8232 17.8655 15.2648 17.4307 15.2648 16.8944C15.2648 16.3581 14.8232 15.9232 14.2785 15.9232" fill="#FF8B79"/>
<path d="M12.9862 15.9232H11.0139V17.8651H12.9862V15.9232Z" fill="#FF422F"/>
</svg>
