<?xml version="1.0" encoding="utf-8"?>
<!-- Generator: Adobe Illustrator 28.0.0, SVG Export Plug-In . SVG Version: 6.00 Build 0)  -->
<svg version="1.1" id="Layer_1" xmlns="http://www.w3.org/2000/svg" xmlns:xlink="http://www.w3.org/1999/xlink" x="0px" y="0px"
	 width="97.9px" height="99.8px" viewBox="0 0 97.9 99.8" style="enable-background:new 0 0 97.9 99.8;" xml:space="preserve">
<style type="text/css">
	.st0{fill:#007662;}
	.st1{opacity:0.89;fill:#4ED8AA;enable-background:new    ;}
	.st2{fill:#00CB91;}
	.st3{fill:#FC8E2C;}
	.st4{fill:#000900;}
	.st5{fill:#5FB405;}
	.st6{fill:#00A200;}
	.st7{fill:#3767D3;}
	.st8{fill:#122466;}
	.st9{fill:#0C2AAF;}
	.st10{opacity:0.9;fill:#D6FF66;enable-background:new    ;}
	.st11{opacity:0.9;fill:#4ED8AA;enable-background:new    ;}
	.st12{opacity:0.99;fill:#85FB96;enable-background:new    ;}
</style>
<path class="st0" d="M13.5,22.3c-2.6,0-5.1,0.4-7.4,1.1c-2.6,0.8-5.6,2.8-6.1,5.6c-0.5,3,2.5,4.7,4.9,5.2c2.3,0.5,7.7,1.2,6.1,4.9
	c-0.6,1.3-1.1,3.6-0.7,5.1c0.7,2.4,3.3,3.2,4.7,3.4c0.2,0,0.5,0,0.7,0c1.5,0,2.9-0.6,4.3-1.2s2.8-1.2,4.3-1.2c0.3,0,0.5,0,0.8,0.1
	c5.5,0.8,8.1,5.4,9.9,9.1c0.2-0.1,0.3-0.2,0.5-0.3c-2-3.8-4.6-8.5-4.9-9.1c-4.1-6.7-6.9-13.9-9.4-21.4
	C18.8,22.7,16.2,22.3,13.5,22.3"/>
<path class="st1" d="M33.4,0c-1.3,0-2.1,0.3-2.1,0.3c-4.4,1.2-6.6,2.7-9.4,6.2c-0.7,0.9-1.3,2.6-1.7,3.7c-0.4,0.9-0.5,1.9-0.6,2.9
	c-0.2,2.1,0,4.9,0.6,6.8c0.4,1.2,0.8,2.4,1.2,3.7c1.5,0.5,2.9,1.2,4.1,2c4,2.8,5,5,6.1,8c1.4,3.6,1.5,10,3.2,14.4l2.1,5.5
	c0.1,0,0.2-0.1,0.3-0.2c-1.4-3.5-2.7-8.1,0.4-11.7c0.3-0.4,1.2-1.4,1-2.5c-0.2-0.9-1-1.5-1.1-1.5c-0.6-0.3-1.2-0.5-1.9-0.7
	c-0.6-0.2-1.3-0.5-1.4-1.2c-0.2-0.8,0.5-1.5,1.1-2c0.8-0.6,1.7-1.2,2.5-1.8c0.8-0.6,1.5-1.3,2.1-2.2c0.5-0.7,1.2-2.3,1-3.2
	c-0.3-1-1.1-1.6-1.9-1.8c-0.4-0.1-0.8-0.2-1.1-0.2c-0.4,0-0.8,0.1-1.3,0.2c-0.3,0.1-0.6,0.1-0.8,0.1c-0.7,0-1.1-0.3-1.4-0.8
	c-0.1-0.2-0.5-0.6-0.6-1.7c0,0-0.1-1.7,1.1-3.4c1.9-2.6,3.5-2.2,5-3.5c0.9-0.8,1.3-1.4,1.8-2.9c0.6-1.8,1-3.5,0.4-5.9
	c-0.5-1.8-1.5-4.1-2.8-4.9C36.9,0.3,34.8,0,33.4,0"/>
<path class="st2" d="M21.2,23.5c2.5,7.5,5.3,14.7,9.4,21.4c0.4,0.6,2.9,5.4,4.9,9.1c0.4-0.2,0.8-0.4,1.1-0.6l-2.1-5.5
	c-1.7-4.4-1.8-10.8-3.2-14.4c-1.1-2.9-2.1-5.2-6.1-8C24.1,24.7,22.7,24,21.2,23.5"/>
<path class="st3" d="M40.6,52.3c-1.1,0-2.3,0.4-3.6,1c1,2.5,2.1,4.4,1.8,5c-0.1,0.1-0.3,0.5-0.5,0.5l0,0c-0.1,0.1-0.1,0.1-0.2,0.1
	s-0.2,0-0.3-0.1c-1-0.7-1.8-2.4-2.8-4.4c-0.5,0.3-1,0.6-1.5,1c-1.6,1.2-2.9,2-3.4,3.7c-0.1,0.3,0.1,3.4,0.7,6.5
	c0.4,1.7,0.7,3.4,1.2,5c1,3.2,2.4,6.1,4.2,8.6c1.9,2.7,4.4,4.8,6.2,7.6c1.7,2.7,3,5.8,3.7,9.3c0.2,0.9,0.2,1.8,0.4,2.6
	c0,0.2,0.1,0.2,0.1,0.4c0.1,0.2,0.2,0.3,0.2,0.5c0,0.1,0.1,0.2,0.2,0.2c0.2,0,0.6-0.4,0.6-0.8c0.3-4.2,0.5-8.3,0.5-12.4
	c0.1-3.9-0.1-5.8-0.5-9.5c-0.2-1.8,0.6-4.8,0.8-7.1c0.2-1.6,0.1-3.7-0.1-5.5c-0.8-6.7-3.1-9.4-3.1-9.4c-0.9-1.3-2.1-2.7-4.5-2.8
	C40.8,52.3,40.7,52.3,40.6,52.3"/>
<path class="st4" d="M35.6,54c-0.2,0.1-0.3,0.2-0.5,0.3c1,2,1.8,3.7,2.8,4.4c0.1,0.1,0.2,0.1,0.3,0.1s0.2,0,0.2-0.1c0,0,0,0,0,0
	c-0.1,0-0.2-0.1-0.2-0.2C37.8,58.3,36.8,56.4,35.6,54"/>
<path class="st5" d="M37,53.3c-0.1,0-0.2,0.1-0.3,0.2l1.7,4.5c0.1,0.3,0.1,0.7-0.1,0.8l0,0c0.2,0,0.4-0.4,0.5-0.5
	C39.1,57.7,38,55.8,37,53.3"/>
<path class="st6" d="M36.7,53.4c-0.4,0.2-0.8,0.4-1.1,0.6c1.2,2.3,2.3,4.2,2.5,4.6c0,0,0.1,0.1,0.2,0.2c0,0,0,0,0,0
	c0.2-0.2,0.2-0.5,0.1-0.8L36.7,53.4"/>
<path class="st7" d="M53.2,15.2c-4.5,0-8.1,3.2-8.1,7.1s3.6,7.1,8.1,7.1c0.2,0,0.5,0,0.7,0c0-1.2,0.3-2.4,1-3.5c1.3-2,3.5-3,5.9-3
	c0.1,0,0.3,0,0.4,0c0-0.2,0-0.4,0-0.6C61.3,18.4,57.7,15.2,53.2,15.2"/>
<path class="st8" d="M54.4,16.7c0,0,0.8,2.6,3.8,2.3c0,0-1.9,1.5-0.8,3.6c0,0-2.6-1.6-4.5,0.8c0,0,0.8-3-2-4.1
	C50.8,19.3,53.5,19.3,54.4,16.7z"/>
<path class="st7" d="M65.8,26.3L65.8,26.3c0,0-0.8,2.7,1.9,4c0,0-2.4,0.3-2.7,2.6c0,0-1-2-3-2c-0.4,0-0.8,0.1-1.2,0.2
	c0,0,2.4-2.1,0.6-4.6c0,0,0.9,0.6,2.1,0.6C64.2,27.1,65,26.9,65.8,26.3 M61.3,22.9c-0.3,3.4-3.4,6.1-7.3,6.5c0,2.6,1.4,5.2,3.9,6.9
	c1.5,1,3.2,1.5,4.8,1.5c2.4,0,4.6-1,5.9-3c2.2-3.3,0.9-7.9-2.9-10.4C64.3,23.5,62.8,23,61.3,22.9"/>
<path class="st9" d="M60.9,22.9c-2.4,0-4.6,1-5.9,3c-0.7,1.1-1,2.3-1,3.5c3.9-0.3,7-3,7.3-6.5C61.2,22.9,61,22.9,60.9,22.9"/>
<path class="st8" d="M65.8,26.3c-0.8,0.6-1.6,0.8-2.3,0.8c-1.2,0-2.1-0.6-2.1-0.6c1.8,2.5-0.6,4.6-0.6,4.6c0.4-0.2,0.8-0.2,1.2-0.2
	c2.1,0,3,2,3,2c0.2-2.3,2.7-2.6,2.7-2.6C65.1,28.9,65.8,26.3,65.8,26.3"/>
<path class="st7" d="M70.2,15.3c0,0,0.1-2.5-2.3-2.8c0,0,2-0.5,2.2-2.6c0,0,0.7,1.3,2.2,1.3c0.3,0,0.7-0.1,1.1-0.2l0,0
	c0,0-1.2,1.5,0,2.9c0,0-0.4-0.1-0.9-0.1C71.9,13.8,70.8,14,70.2,15.3 M70.7,8.8c-0.5,0-1.1,0.1-1.6,0.2c-3.4,0.8-5.6,3.9-4.9,6.8
	c0.6,2.5,3,4.2,5.8,4.2c0.5,0,1.1-0.1,1.6-0.2c3.4-0.8,5.6-3.9,4.9-6.8C75.9,10.4,73.5,8.8,70.7,8.8"/>
<path class="st8" d="M70.2,9.9C70,12.1,68,12.5,68,12.5c2.4,0.3,2.3,2.8,2.3,2.8c0.6-1.3,1.6-1.5,2.4-1.5c0.5,0,0.9,0.1,0.9,0.1
	c-1.2-1.4,0-2.9,0-2.9c-0.4,0.1-0.7,0.2-1.1,0.2C71,11.2,70.2,9.9,70.2,9.9"/>
<path class="st10" d="M86.6,31.6c-1.8,0-3.8,1.2-5.2,2.3c-1.4,1.1-2.6,2.3-3.6,3.8c-0.5,0.7-0.9,1.5-1.3,2.2
	c-0.4,0.8-0.7,1.6-1.2,2.3c-0.4,0.7-1.1,1.3-1.9,1.4c-0.1,0-0.2,0-0.3,0c-0.5,0-1.1-0.2-1.6-0.4c-0.9-0.3-1.8-0.8-2.8-0.8
	c-0.3,0-0.6,0-1,0.2c-1.5,0.5-2.4,2-3,3.3c-0.7,1.5-1.1,3-1.4,4.6c-0.2,1.6-0.3,3.2-0.1,4.8c0.1,0.7,0.2,1.5,0.1,2.2
	c-0.1,0.9-0.7,1.5-1.6,1.6c-0.1,0-0.3,0-0.4,0c-0.7,0-1.3-0.2-1.9-0.3c-0.6-0.2-1.3-0.3-1.9-0.3c-0.1,0-0.3,0-0.4,0
	c-1.4,0.2-2.3,1.2-2.5,2.6c-0.2,1.4,0.2,2.9,0.6,4.3c0.5,1.5,1.1,2.9,1.6,4.4c0.5,1.4,1,2.9,1.2,4.4c0.2,1.7-0.1,3.3-0.6,4.9
	c-0.5,1.6-1,3.1-1.4,4.7c-0.4,1.6-0.6,3.2-0.8,4.8c-0.3,3.2-0.9,4.6-1.5,8.1c-0.1,0.5,0.3,0.7,0.8,0.7c0.7,0,1.6-0.3,1.6-0.3
	c0.5-0.7,1-3,1.3-5.8c0.2-1.9,0.5-3.4,1-5.2c0.5-1.7,0.9-3.4,1.9-4.8c1-1.6,2.3-2.8,4-3.6c0,0,0.1,0,0.1,0c0-0.3,0.1-0.5,0.1-0.8
	c0.1-1.3-0.1-2.7-0.3-4c-0.2-1.3-0.5-2.7-0.7-4c-0.2-1.2-0.3-2.5,0.2-3.7c0.4-1.1,1.2-1.9,2.4-1.9c0.1,0,0.1,0,0.2,0
	c1.4,0.1,2.5,1.1,3.9,1.2c0,0,0.1,0,0.1,0c0.7,0,1.3-0.4,1.5-1.1c0.2-0.6,0.2-1.3,0.2-1.9c0.1-1.4,0.4-2.8,0.8-4.1
	c0.5-1.3,1.1-2.6,1.9-3.8c0.7-1.1,1.8-2.2,3.1-2.4c0.1,0,0.3,0,0.4,0c1,0,1.9,0.6,2.7,1.1c0.5,0.3,1,0.6,1.5,0.6c0,0,0.1,0,0.1,0
	c0.7,0,1.3-0.4,1.8-0.9c0.3-0.3,0.6-0.7,0.8-1.1c-1-0.7-2.3-1-2.4-2.4c-0.2-1.6,0.7-3.1,1.7-4.3c1-1.3,2.3-2.3,3.4-3.5
	c1.1-1.1,2.1-2.5,2.3-4.1c0.2-1.3,0-2.7-0.8-3.8C88.5,32,87.6,31.6,86.6,31.6"/>
<path class="st11" d="M94.7,44.7c-1.4,0-3,0.6-4.1,1.2c-1.3,0.7-2.6,1.6-3.6,2.7c-0.5,0.5-1,1.1-1.4,1.7c-0.2,0.2-0.3,0.5-0.5,0.8
	c0.2,0.2,0.5,0.3,0.7,0.6c0.9,1,0.6,2.4-0.1,3.5c-0.9,1.3-2.3,2.1-3.7,2.7c-1.6,0.7-3.3,1.2-5,1.8c-0.8,0.3-1.6,0.7-2.4,1.2
	c-0.7,0.4-1.4,1-1.6,1.8c-0.3,1.4,0.7,2.7,1.3,3.8c0.6,1.2,0.9,2.4,0.6,3.7c-0.3,1.2-1.1,2.3-2,3.2c-2.4,2.3-5.7,2.9-8.6,4.4
	c-0.2,1.2-0.6,2.3-1.2,3.3c-0.7,1.3-1.4,2.5-1.9,3.8c-0.6,1.3-1,2.6-1.4,4c-0.8,2.7-1.5,3.8-2.5,6.7c-0.2,0.6,0.5,0.7,1.2,0.7
	c0.5,0,0.8-0.1,0.8-0.1c0.5-0.5,1.3-2.4,2-4.8c0.5-1.6,1-2.9,1.6-4.3c0.7-1.4,1.3-2.8,2.3-3.8c1.1-1.2,2.4-2,4-2.5
	c2.7-0.8,5.7-0.8,8.1-2.5c0.9-0.6,1.7-1.4,2.2-2.5c0.5-1.1,0.4-2.2,0.1-3.3c-0.3-1.1-1-2.3-0.6-3.4c0.3-0.7,1-1.1,1.6-1.3
	c0.7-0.3,1.4-0.5,2.2-0.6c1.5-0.3,3-0.4,4.5-0.8c1.3-0.3,2.7-0.8,3.6-1.8c0.8-0.8,1.2-1.9,0.7-3c-0.7-1.1-2.3-1.5-2.2-3
	c0.1-1.4,1.1-2.6,2.1-3.4c1.1-0.9,2.3-1.6,3.4-2.5c1.1-0.8,2.2-1.8,2.6-3.1c0.4-1.1,0.4-2.3-0.1-3.4C96.9,45,95.8,44.6,94.7,44.7"/>
<path class="st12" d="M85.1,51c-0.3,0.4-0.5,0.7-0.8,1.1c-0.5,0.5-1.1,0.9-1.8,0.9c0,0-0.1,0-0.1,0c-0.6,0-1.1-0.3-1.5-0.6
	c-0.9-0.5-1.7-1.1-2.7-1.1c-0.1,0-0.2,0-0.4,0c-1.3,0.2-2.4,1.3-3.1,2.4c-0.8,1.2-1.4,2.4-1.9,3.8c-0.4,1.3-0.7,2.7-0.8,4.1
	c-0.1,0.6,0,1.3-0.2,1.9c-0.2,0.7-0.8,1.1-1.5,1.1c0,0-0.1,0-0.1,0c-1.4-0.1-2.5-1.1-3.9-1.2c-0.1,0-0.1,0-0.2,0
	c-1.2,0-2,0.8-2.4,1.9c-0.4,1.2-0.3,2.5-0.2,3.7c0.2,1.3,0.5,2.7,0.7,4c0.2,1.3,0.4,2.7,0.3,4c0,0.3-0.1,0.5-0.1,0.8
	c2.9-1.5,6.2-2,8.6-4.4c0.9-0.9,1.7-2,2-3.2c0.3-1.3,0-2.6-0.6-3.7c-0.6-1.1-1.7-2.4-1.3-3.8c0.2-0.8,0.9-1.4,1.6-1.8
	c0.7-0.5,1.5-0.8,2.4-1.2c1.6-0.7,3.3-1.1,5-1.8c1.4-0.6,2.8-1.4,3.7-2.7c0.7-1,1-2.4,0.1-3.5C85.5,51.4,85.3,51.2,85.1,51"/>
</svg>
