<?xml version="1.0" encoding="utf-8"?>
<!-- Generator: Adobe Illustrator 28.0.0, SVG Export Plug-In . SVG Version: 6.00 Build 0)  -->
<svg version="1.1" id="Layer_1" xmlns="http://www.w3.org/2000/svg" xmlns:xlink="http://www.w3.org/1999/xlink" x="0px" y="0px"
	 width="104.2px" height="93px" viewBox="0 0 104.2 93" style="enable-background:new 0 0 104.2 93;" xml:space="preserve">
<style type="text/css">
	.st0{fill:#FC937F;}
	.st1{fill:#F9553F;}
	.st2{fill:#64AFFE;}
	.st3{fill:#63657F;}
	.st4{fill:#623A3F;}
	.st5{fill:#2778FD;}
	.st6{fill:#0F52FC;}
</style>
<path class="st0" d="M35.6,56.6c0.2,0.6,0.3,1.2,0.3,1.8v4.7c1.3-0.2,2.5-0.5,3.7-0.8C38,60.5,36.7,58.6,35.6,56.6 M33.9,53.2
	c-1,0.2-2,0.2-3.1,0.2c1.7,0,3.3,0.9,4.2,2.2C34.6,54.8,34.3,54,33.9,53.2 M59.5,21.2c-3.3,0.5-6.5,1.8-9.4,3.9
	c0.9,2.4,1.5,4.9,1.5,7.6c0,6.8-3.3,12.8-8.3,16.6c1,2.6,2.5,4.9,4.6,7c0.4,0.4,0.9,0.8,1.3,1.2c7.6-5.6,12.5-14.7,12.5-24.8
	C61.7,28.6,60.9,24.7,59.5,21.2 M30.9,1.8C13.8,1.8,0,15.7,0,32.7c0,15.3,11.2,28,25.8,30.4v-4.7c0-2.8,2.3-5.1,5.1-5.1
	c-11.4,0-20.7-9.3-20.7-20.7S19.4,12,30.9,12c5.1,0,9.7,1.8,13.3,4.9c3-2.2,6.2-3.8,9.6-4.8C48.1,5.8,39.9,1.8,30.9,1.8"/>
<path class="st0" d="M25.8,63.2v6.2h10.1v-6.2c-1.7,0.3-3.3,0.4-5.1,0.4S27.4,63.4,25.8,63.2"/>
<path class="st1" d="M30.8,53.4c-2.8,0-5.1,2.3-5.1,5.1v4.7c1.7,0.3,3.3,0.4,5.1,0.4s3.4-0.1,5.1-0.4v-4.7c0-0.7-0.1-1.3-0.3-1.8
	c-0.2-0.3-0.4-0.7-0.5-1C34.1,54.3,32.6,53.4,30.8,53.4L30.8,53.4"/>
<path class="st0" d="M35.9,79.5H25.8V88c0,2.8,2.3,5.1,5.1,5.1s5.1-2.3,5.1-5.1L35.9,79.5"/>
<path class="st0" d="M25.8,69.4h-6.2c-2.8,0-5.1,2.3-5.1,5.1s2.3,5.1,5.1,5.1h6.2V69.4 M42.6,69.4h-6.7v10.2h6.7
	c2.8,0,5.1-2.3,5.1-5.1S45.4,69.4,42.6,69.4"/>
<polyline class="st1" points="35.9,69.4 25.8,69.4 25.8,79.5 35.9,79.5 35.9,69.4 "/>
<path class="st2" d="M44.2,16.9c-1.2,0.9-2.3,1.9-3.4,3c-9,9-11.3,22.2-6.8,33.4c3.5-0.5,6.7-1.9,9.4-3.9C40.4,41.8,41.9,33,47.9,27
	c0.7-0.7,1.4-1.3,2.2-1.9C48.8,21.9,46.8,19,44.2,16.9 M62.5,10.8c-3,0-5.9,0.4-8.8,1.3c2.4,2.7,4.3,5.7,5.7,9.1
	c1-0.2,2.1-0.2,3.1-0.2c5.3,0,10.6,2,14.7,6.1c8.1,8.1,8.1,21.2,0,29.3c-4,4-9.3,6.1-14.7,6.1c-4.8,0-9.5-1.6-13.3-4.8
	c-2.9,2.1-6.1,3.8-9.6,4.8c0.4,0.4,0.7,0.8,1.1,1.2c6,6,13.9,9,21.8,9s15.8-3,21.8-9c11-11,11.9-28.3,2.9-40.4l-3.4,3.4
	c-0.8,0.8-2,1.3-3.1,1.3s-2.2-0.4-3.1-1.3c-1.7-1.7-1.7-4.5,0-6.2l3.4-3.4C75.6,12.8,69.1,10.8,62.5,10.8"/>
<path class="st3" d="M43.3,49.3c-2.7,2-5.9,3.4-9.4,3.9c0.3,0.8,0.7,1.6,1.1,2.4c0.2,0.3,0.4,0.7,0.5,1c1.1,2,2.5,3.9,4,5.7
	c3.5-1,6.7-2.7,9.6-4.8c-0.5-0.4-0.9-0.8-1.3-1.2C45.8,54.2,44.3,51.8,43.3,49.3 M53.7,12.1c-3.4,1-6.7,2.6-9.6,4.8
	c2.6,2.2,4.7,5,6,8.2c2.8-2.1,6-3.4,9.4-3.9C58.1,17.8,56.1,14.7,53.7,12.1"/>
<path class="st4" d="M35,55.6c0.2,0.3,0.3,0.7,0.5,1C35.4,56.3,35.2,56,35,55.6"/>
<path class="st2" d="M95.5,8.7h-6.2L81.1,17c1.2,0.9,2.2,1.8,3.3,2.9c1,1,2,2.1,2.9,3.3l8.3-8.3V8.7 M104.2,3.8c0,0.2,0,0.4,0,0.5
	l0,0v0C104.2,4.2,104.2,4,104.2,3.8 M104,3L104,3L104,3 M101.7,0.4c1.1,0.5,1.9,1.4,2.3,2.6c-0.2-0.6-0.6-1.2-1.1-1.7
	C102.6,0.9,102.1,0.6,101.7,0.4"/>
<path class="st5" d="M81.1,17l-3.4,3.4c-1.7,1.7-1.7,4.5,0,6.2c0.8,0.8,2,1.3,3.1,1.3s2.2-0.4,3.1-1.3l3.4-3.4
	c-0.9-1.2-1.8-2.2-2.9-3.3S82.2,17.8,81.1,17"/>
<path class="st2" d="M104.2,4.4c0,0.2,0,0.3,0,0.5l0,0l0,0c0,0.2-0.1,0.5-0.2,0.7l0,0l0,0c-0.2,0.6-0.6,1.2-1.1,1.8l-7.4,7.4v7.4
	c0,2.4,1.9,4.3,4.3,4.3s4.3-2,4.3-4.3L104.2,4.4"/>
<path class="st5" d="M104,5.7c-0.6,1.8-2.2,3-4.2,3h-4.3v6.1l7.4-7.4C103.4,6.9,103.8,6.3,104,5.7 M104,5.7L104,5.7L104,5.7
	 M104.1,4.9L104.1,4.9L104.1,4.9 M104.2,4.4c0,0.2,0,0.4,0,0.5C104.2,4.7,104.2,4.6,104.2,4.4L104.2,4.4L104.2,4.4"/>
<path class="st2" d="M99.8,0H81.4C79,0,77,1.9,77,4.3s1.9,4.4,4.3,4.4h8l7.4-7.4c0.4-0.4,0.8-0.7,1.2-0.9C98.5,0.1,99.2,0,99.8,0
	c0.6,0,1.3,0.1,1.9,0.4l0,0C101.1,0.1,100.5,0,99.8,0"/>
<path class="st5" d="M98,0.4c-0.4,0.2-0.9,0.5-1.2,0.9l-7.4,7.4h6.2V4.3C95.5,2.6,96.5,1.1,98,0.4"/>
<path class="st5" d="M104,5.7L104,5.7L104,5.7 M104.2,4.9c0,0.2-0.1,0.5-0.2,0.7C104.1,5.4,104.1,5.2,104.2,4.9 M104.2,4.9
	L104.2,4.9L104.2,4.9 M104,3c0.1,0.3,0.1,0.5,0.2,0.8C104.1,3.5,104.1,3.3,104,3 M104,3L104,3L104,3 M99.8,0c-0.7,0-1.3,0.1-1.8,0.4
	C98.6,0.2,99.2,0,99.8,0s1.3,0.1,1.9,0.4C101.2,0.2,100.5,0,99.8,0"/>
<path class="st6" d="M99.8,0c-0.6,0-1.3,0.1-1.8,0.4c-1.5,0.7-2.5,2.2-2.5,3.9v4.4h4.3c1.9,0,3.6-1.3,4.2-3l0,0l0,0
	c0.1-0.2,0.1-0.5,0.2-0.7l0,0l0,0c0-0.2,0-0.4,0-0.5s0-0.4,0-0.5c0-0.3-0.1-0.5-0.2-0.8l0,0l0,0c-0.4-1.1-1.2-2.1-2.3-2.6
	C101.1,0.2,100.5,0,99.8,0"/>
</svg>
