<?xml version="1.0" encoding="UTF-8"?>
<svg id="Layer_1" data-name="Layer 1" xmlns="http://www.w3.org/2000/svg" viewBox="0 0 300 300">
  <defs>
    <style>
      .cls-1 {
        fill: #f4aeca;
      }

      .cls-1, .cls-2, .cls-3, .cls-4, .cls-5, .cls-6, .cls-7, .cls-8, .cls-9, .cls-10, .cls-11, .cls-12, .cls-13, .cls-14 {
        stroke-width: 0px;
      }

      .cls-2 {
        fill: #f7cdd6;
      }

      .cls-3 {
        fill: #77534c;
      }

      .cls-4 {
        fill: #512e22;
      }

      .cls-5 {
        fill: #744630;
      }

      .cls-6 {
        fill: #ffedfb;
      }

      .cls-7 {
        fill: #fff;
      }

      .cls-8 {
        fill: #ffe7f4;
      }

      .cls-9 {
        fill: #ea965e;
      }

      .cls-10 {
        fill: #e52e08;
      }

      .cls-11 {
        fill: #fcd9f1;
      }

      .cls-12 {
        fill: #ffd7f0;
      }

      .cls-13 {
        fill: #eb667d;
      }

      .cls-14 {
        fill: #f6736f;
      }
    </style>
  </defs>
  <path class="cls-2" d="m108.02,34.13c-.24-1.25,0-2.62.57-3.41.47-.66,1.11-1.03,1.76-1.23.51-.16,1.04-.21,1.51-.21.35,0,.66.03.93.06,1.55.21,3.02.86,4.23,1.86,4.81-1.17,9.64-1.73,14.41-1.73,23.08,0,44.66,13.17,54.97,34.35.51-.08,1.02-.11,1.53-.11,4.49,0,8.66,2.89,10.05,7.41,1.59,5.14-.97,10.57-5.77,12.71,3.26,28.66-14.19,56.49-42.76,65.3-6.01,1.85-12.08,2.73-18.05,2.73-22.44,0-43.44-12.45-54.07-32.6-.63.11-1.25.17-1.87.17-4.49,0-8.66-2.9-10.05-7.42-1.55-5.03.86-10.32,5.45-12.55-4.03-27.5,11.17-54.62,37.15-65.34M132.6.85c-35.38,0-69.89,21.32-83.46,62.63-3.74,10.94-5.47,23.16-5.76,36.05,19.62,45.53,58.92,81.82,124.82,81.82,4.05,0,8.19-.14,12.44-.42,42.74-42.37,41.37-99.11,23.37-145.06C185.03,12.34,158.59.85,132.6.85"/>
  <path class="cls-9" d="m197.98,71.12c-1.55-5.03-6.53-8.04-11.58-7.3-12.98-26.67-43.8-40.63-73.02-31.62-29.22,9.02-46.82,37.92-42.51,67.26-4.59,2.23-7,7.53-5.45,12.55,1.59,5.14,6.76,8.19,11.93,7.25,13.46,25.51,43.55,38.68,72.12,29.86,28.57-8.81,46.01-36.64,42.76-65.3,4.8-2.14,7.36-7.56,5.77-12.71"/>
  <path class="cls-4" d="m168.28,81.43c-1.57-4.05-6.03-6.33-10.23-5.22-4.75,1.26-7.46,6.21-6.03,10.86v.04c.42,1.3,2.2,1.44,2.86.25,1.04-1.88,2.77-3.38,4.99-4.06,2.21-.68,4.49-.43,6.41.54,1.22.62,2.61-.51,2.21-1.82-.06-.2-.13-.4-.2-.59Z"/>
  <path class="cls-4" d="m101.27,93.73c-4.1,1.44-6.5,5.84-5.52,10.07.05.21.1.41.17.61.41,1.3,2.19,1.45,2.85.26,1.04-1.88,2.77-3.37,4.99-4.06,2.21-.68,4.49-.43,6.41.54,1.21.61,2.61-.51,2.21-1.81v-.04c-1.45-4.65-6.47-7.21-11.11-5.58Z"/>
  <path class="cls-10" d="m118.47,106.89c3.37,8.13,12.43,12.5,21,9.86,8.57-2.65,13.59-11.37,11.79-19.98l-32.8,10.12Z"/>
  <path class="cls-14" d="m101.83,110.94c-.8,0-1.61.12-2.42.37-4.32,1.33-6.74,5.91-5.41,10.23,1.08,3.52,4.32,5.77,7.82,5.77.8,0,1.61-.12,2.42-.37,4.32-1.33,6.74-5.91,5.41-10.23-1.08-3.52-4.32-5.77-7.82-5.77"/>
  <path class="cls-14" d="m171.81,89c-.8,0-1.61.12-2.42.37-4.32,1.33-6.74,5.91-5.41,10.23,1.08,3.52,4.32,5.77,7.82,5.77.8,0,1.61-.12,2.42-.37,4.32-1.33,6.74-5.91,5.41-10.23-1.08-3.52-4.32-5.77-7.82-5.77"/>
  <path class="cls-3" d="m111.86,29.28c-.47,0-1,.05-1.51.21-.66.2-1.29.58-1.76,1.23-.57.79-.8,2.16-.57,3.41,1.74-.72,3.53-1.36,5.36-1.93,1.21-.37,2.43-.71,3.64-1-1.21-1-2.68-1.65-4.23-1.86-.26-.04-.58-.06-.93-.06"/>
  <path class="cls-5" d="m117.02,31.2c-1.22.3-2.43.63-3.64,1-1.83.57-3.62,1.21-5.36,1.93.13.66.39,1.29.8,1.78.56.66,1.34.98,2.32.98.64,0,1.37-.14,2.19-.43,1.53-.53,3.77-1.61,5.22-3.63l-.05-.07c-.43-.59-.93-1.11-1.48-1.56"/>
  <path class="cls-11" d="m40.38,92.1c-1.3,24,2.58,50.55,8.16,75.78,13,65.56,48.13,130.63,112.8,130.63,6.58,0,13.48-.68,20.68-2.09l1.23-.28c21.84-5.88,37.83-16.9,49.13-31.2-7.11,6.24-15.66,11.62-25.84,15.94l-1.13.43c-3.83,1.32-7.6,2.38-11.29,3.21-4.37,1.88-9.05,3.51-14.05,4.86l-1.16.27c-6.87,1.35-13.44,1.99-19.72,1.99-61.79,0-95.41-62.18-107.81-124.81-4.93-22.37-8.49-45.76-8.01-67.29-1.06-2.45-2.06-4.93-3-7.43"/>
  <path class="cls-1" d="m43.38,99.53c-.48,21.53,3.08,44.93,8.01,67.29,12.4,62.63,46.02,124.81,107.81,124.81,6.28,0,12.85-.64,19.72-1.99l1.16-.27c5-1.35,9.68-2.97,14.05-4.86-6.86,1.54-13.49,2.27-19.89,2.27-37.82,0-67.56-25.52-88.74-59.86,11.58-1.72,23.93-4.81,36.92-9.43l1.6-.68c24.16-9.87,42.72-22.12,56.61-35.89-4.25.28-8.39.42-12.44.42-65.9,0-105.21-36.29-124.82-81.82"/>
  <path class="cls-7" d="m203.75,35.21c.09.22.17.44.26.66,2.38,2.95,4.64,6.08,6.76,9.41,14.71,22.46,24.16,52.19,30.75,81.34,3.07,12.22,5.38,24.96,6.61,37.72,2.01-.9,3.97-1.83,5.9-2.78,4.27,37.98-.4,76.49-21.63,103.37,41.23-36.19,33.91-101.21,12.7-153.72-10.45-27.88-23.84-55.79-41.34-76.01"/>
  <path class="cls-8" d="m204.01,35.87c18,45.95,19.37,102.7-23.37,145.06,9.85-.65,20.23-2.06,31.19-4.33l1.78-.4c12.73-3.25,24.19-7.22,34.52-11.86-1.23-12.76-3.53-25.5-6.61-37.72-6.59-29.15-16.03-58.88-30.75-81.34-2.13-3.32-4.39-6.46-6.76-9.41"/>
  <path class="cls-6" d="m254.02,161.57c-1.92.95-3.89,1.88-5.9,2.78,4.79,49.82-6.93,99.9-53.99,120.17,3.7-.83,7.46-1.9,11.29-3.21l1.13-.43c10.18-4.31,18.73-9.7,25.84-15.94,21.23-26.88,25.9-65.39,21.63-103.37"/>
  <path class="cls-12" d="m248.13,164.34c-10.33,4.64-21.79,8.61-34.52,11.86l-1.78.4c-10.96,2.26-21.35,3.68-31.19,4.33-13.89,13.77-32.45,26.03-56.61,35.89l-1.6.68c-12.99,4.62-25.34,7.7-36.92,9.43,21.18,34.34,50.92,59.86,88.74,59.86,6.4,0,13.03-.73,19.89-2.27,47.06-20.27,58.78-70.35,53.99-120.17"/>
  <path class="cls-13" d="m70.87,99.47s6.73-61.92,63.59-62.57c0,0,32.01,1.34,51.94,26.93,0,0-17-47.78-84.58-26.93,0,0-36.56,17.84-30.96,62.57Z"/>
  <path class="cls-13" d="m151.79,16.94c5.52-3.22,12.18,7.36,12.56,17.02.38,9.65-5.77,21.26-11.18,17.95-7.46-4.57-16.66-13.27-16.8-16.85-.18-4.58,8-13.81,15.41-18.13Z"/>
  <path class="cls-13" d="m115.74,18.37c7.73,3.72,16.62,12.26,16.8,16.85.14,3.58-8.33,12.98-15.42,18.13-5.12,3.72-12.17-7.36-12.56-17.02-.38-9.66,5.41-20.73,11.17-17.96Z"/>
  <path class="cls-7" d="m134.19,28.47c4.14-.16,7.62,2.72,7.76,6.44.15,3.73-3.09,6.88-7.23,7.04-4.14.16-7.61-2.72-7.76-6.45-.15-3.72,3.09-6.87,7.23-7.04Z"/>
</svg>