<svg width="50" height="39" viewBox="0 0 50 39" fill="none" xmlns="http://www.w3.org/2000/svg">
<path opacity="0.8" d="M35.65 5.9978V29.492C35.65 30.705 34.6698 31.6852 33.4568 31.6852H14.4564L14.8324 32.2492L33.5911 36.0717C33.7388 36.103 33.8865 36.1164 34.0297 36.1164C35.0457 36.1164 35.9588 35.4003 36.1692 34.3663L39.3426 18.7945L36.8137 20.4864C36.7511 20.4999 36.6884 20.5088 36.6302 20.5088C36.1065 20.5088 35.7127 19.9583 35.9409 19.4435L38.8234 15.6077C38.9219 15.3794 38.904 15.1153 38.7742 14.9005L35.9812 12.5595C35.6634 12.0493 36.0394 11.4003 36.6213 11.4003C36.6481 11.4003 36.675 11.4003 36.7018 11.4003L40.3408 12.385C40.3676 12.385 40.39 12.385 40.4169 12.385C40.4974 12.385 40.5825 12.3715 40.6586 12.3447L41.2673 9.36371C41.509 8.17759 40.7436 7.02279 39.562 6.78109L35.6545 5.98438" fill="#3763DA"/>
<path d="M33.4568 1.80811H13.7358C12.6615 1.80811 11.7663 2.58244 11.5784 3.60296L13.3285 3.45525C13.8029 3.50449 14.0133 4.08189 13.6865 4.42653L11.5425 5.30829V24.5772L13.6776 23.9998L17.6433 4.56081C17.8536 3.52239 18.7667 2.81072 19.7828 2.81072C19.926 2.81072 20.0737 2.82414 20.2214 2.85548L35.65 6.00207V4.00579C35.65 2.79281 34.6698 1.81258 33.4568 1.81258" fill="#3763DA"/>
<path d="M14.6041 23.2795V21.9278H32.3467V23.2795H14.6041ZM19.7827 2.81104C18.7667 2.81104 17.8536 3.52719 17.6432 4.56113L13.6775 24.0002L16.014 23.369C16.014 23.369 16.0453 23.369 16.0632 23.369C16.9226 23.369 17.4866 24.3582 17.1195 25.155H28.287V26.5067H15.817L13.4314 28.861C13.2255 29.1878 13.1852 29.613 13.3284 29.989L14.4653 31.6898H33.4657C34.6787 31.6898 35.6589 30.7096 35.6589 29.4966V5.99791L20.2214 2.85579C20.0737 2.82446 19.926 2.81104 19.7827 2.81104Z" fill="#1532C0"/>
<path d="M32.3467 7.57764H14.6041V16.4087H32.3467V7.57764Z" fill="#90FFDC"/>
<path d="M32.3467 18.7007H14.6041V20.0524H32.3467V18.7007Z" fill="#90FFDC"/>
<path d="M32.3467 21.9277H14.6041V23.2795H32.3467V21.9277Z" fill="#90FFDC"/>
<path d="M28.287 25.1548H17.1195C17.0972 25.204 17.0703 25.2533 17.0435 25.298L15.817 26.5065H28.287V25.1548Z" fill="#90FFDC"/>
<path d="M44.396 8.2491C44.1856 8.2491 43.9752 8.33415 43.8186 8.51766L40.9943 12.1253C40.9047 12.2327 40.7839 12.3133 40.6541 12.3535L39.3426 18.7944L40.7257 17.8724C40.7839 17.859 40.8466 17.85 40.9047 17.85C41.0883 17.85 41.2673 17.9171 41.4105 18.0425L42.4355 21.0727C42.5832 21.207 42.7623 21.2652 42.9368 21.2652C43.3083 21.2652 43.6664 20.9876 43.6977 20.5624L44.1543 16.9369C44.1722 16.6863 44.3109 16.4625 44.5303 16.3371L49.6239 15.7776C50.1655 15.4599 50.1118 14.6587 49.5299 14.417L44.3244 13.383C44.0916 13.289 43.9215 13.0876 43.8678 12.8414L45.1435 8.84441C45.0629 8.46395 44.7317 8.24463 44.396 8.24463" fill="#F4C600"/>
<path d="M36.6213 11.4048C36.0394 11.4048 35.6634 12.0538 35.9812 12.5641L38.7742 14.905C38.904 15.1153 38.9264 15.3794 38.8234 15.6122L35.9409 19.4481C35.7126 19.9628 36.1065 20.5133 36.6302 20.5133C36.6884 20.5133 36.7511 20.5044 36.8137 20.491L39.3426 18.799L40.6541 12.3582C40.578 12.385 40.4974 12.3984 40.4124 12.3984C40.3855 12.3984 40.3632 12.3984 40.3363 12.3984L36.6973 11.4137C36.6705 11.4137 36.6436 11.4137 36.6168 11.4137" fill="#5B6500"/>
<path d="M8.44072 0C8.22588 0 8.01551 0.116375 7.91256 0.340172L6.60558 3.5718C6.52949 3.74637 6.36836 3.86722 6.18037 3.90302L3.31129 3.95226C2.84131 4.0373 2.67123 4.62813 3.0293 4.95039L5.56269 6.06938C5.70144 6.19918 5.77306 6.38717 5.7462 6.57516L4.44818 9.98583C4.39894 10.3529 4.69435 10.6393 5.0211 10.6393C5.11509 10.6393 5.21356 10.6169 5.30756 10.5632L7.61715 7.82843C7.70667 7.77919 7.80514 7.75234 7.90361 7.75234C7.98865 7.75234 8.07369 7.77024 8.15426 7.81052L9.5418 9.80679C9.62685 9.84708 9.71189 9.86498 9.79246 9.86498C10.1371 9.86498 10.437 9.54719 10.3564 9.16673L9.92673 6.4185C9.88645 6.23052 9.94464 6.03805 10.0744 5.8993L11.5381 5.29952V3.99702C11.5381 3.85826 11.5515 3.72399 11.5739 3.59418L9.3001 3.78665C9.11211 3.76427 8.94203 3.65237 8.85251 3.48676L8.94203 0.295412C8.83908 0.0984708 8.63766 0 8.44072 0Z" fill="#FF8800"/>
<path d="M13.3285 3.45117L11.5784 3.59888C11.556 3.72868 11.5425 3.86296 11.5425 4.00171V5.30421L13.6865 4.42245C14.0177 4.0778 13.8074 3.50041 13.3285 3.45117Z" fill="#373500"/>
<path d="M6.85173 19.2554C6.3728 19.2554 5.91178 19.5732 5.7775 20.1461L5.89387 25.0517C5.80435 25.4411 5.54027 25.75 5.19115 25.8798L0.737585 27.0927C-0.144176 27.4195 -0.265027 28.7041 0.536167 29.2681L4.75251 30.6108C5.0703 30.8346 5.27172 31.2061 5.28514 31.609L4.12588 37.2397C4.15721 37.9603 4.72118 38.4482 5.30305 38.4482C5.54027 38.4482 5.78197 38.3677 5.99234 38.1841L9.34035 33.659C9.53729 33.4844 9.78347 33.3949 10.0386 33.3949C10.1505 33.3949 10.2624 33.4128 10.3743 33.4486L14.613 35.5523C14.7294 35.5926 14.8458 35.6105 14.9577 35.6105C15.7096 35.6105 16.2781 34.7914 15.9692 33.9633L14.8279 32.2535L14.2505 32.1371C13.8655 32.0566 13.5209 31.882 13.2434 31.6403C12.2676 31.4165 11.538 30.5437 11.538 29.5008V24.5817L11.1889 24.6757C11.1889 24.6757 11.1576 24.6757 11.1442 24.6757C10.7861 24.6757 10.4459 24.4967 10.2221 24.1834L7.76929 19.7477C7.52759 19.412 7.18295 19.2554 6.85173 19.2554Z" fill="#F4C600"/>
<path d="M13.2479 31.6358C13.5254 31.8775 13.8655 32.0566 14.2549 32.1327L14.8323 32.249L14.4564 31.6851H13.7357C13.5656 31.6851 13.4045 31.6672 13.2479 31.6313" fill="#5B6500"/>
<path d="M13.6776 24L11.5425 24.5774V29.4965C11.5425 30.5394 12.2721 31.4122 13.2479 31.636C12.6794 31.1347 12.384 30.3514 12.5452 29.5546L13.6776 24Z" fill="#354D00"/>
<path d="M16.0588 23.3691C16.0588 23.3691 16.0274 23.3691 16.0095 23.3691L13.6731 24.0002L12.5407 29.5549C12.3795 30.3516 12.6705 31.1349 13.2434 31.6362C13.4001 31.672 13.5657 31.6899 13.7313 31.6899H14.4519L13.315 29.9891C13.1763 29.6131 13.2121 29.1879 13.418 28.8611L15.8036 26.5068H14.5951V25.155H17.1106C17.4776 24.3583 16.9137 23.3691 16.0543 23.3691" fill="#142700"/>
<path d="M17.1196 25.1548H14.6041V26.5065H15.8126L17.039 25.298C17.0703 25.2533 17.0927 25.204 17.1151 25.1548" fill="#8AC600"/>
</svg>
