<?xml version="1.0" encoding="utf-8"?>
<!-- Generator: Adobe Illustrator 28.0.0, SVG Export Plug-In . SVG Version: 6.00 Build 0)  -->
<svg version="1.1" id="Layer_1" xmlns="http://www.w3.org/2000/svg" xmlns:xlink="http://www.w3.org/1999/xlink" x="0px" y="0px"
	 width="93.8px" height="91.4px" viewBox="0 0 93.8 91.4" style="enable-background:new 0 0 93.8 91.4;" xml:space="preserve">
<style type="text/css">
	.st0{fill:#64AFFE;}
	.st1{fill:#F0EED7;}
	.st2{fill:#BCF5FF;}
	.st3{fill:#F3F2F2;}
	.st4{fill:#BEF7FF;}
	.st5{fill:#FEFEFB;}
	.st6{fill:#F9FEFF;}
	.st7{fill:#FFE12E;}
	.st8{fill:#C8EDFE;}
	.st9{fill:#F1C630;}
</style>
<path class="st0" d="M54.5,0C33.7,0.5,17.1,17.5,17.1,38.4c0,6.6,1.7,12.8,4.6,18.2c2.8-2.3,6.5-3.8,10.4-3.8
	c7.4,0,13.6,4.9,15.7,11.7c2.3-1.5,5-2.3,7.8-2.3c7.1,0,13,5.1,14.3,11.8c0.8-0.5,1.6-0.8,2.5-1.1c12.5-6.1,21.2-18.8,21.5-33.6
	c-2.5,4.3-6,7.9-10.3,10.4l1.5,3.8c0.4,0.9-0.3,1.9-1.3,1.9c-0.1,0-0.2,0-0.4-0.1l-7.3-2c-0.1,0-0.2-0.1-0.4-0.1
	c-0.3,0-0.6,0.1-0.9,0.3l-5.8,4.9c-0.3,0.2-0.6,0.3-0.9,0.3c-0.7,0-1.3-0.5-1.4-1.3l-0.2-3.9c-14.8-1.2-26.5-13.6-26.5-28.7
	C40.1,14.3,45.9,5,54.5,0"/>
<path class="st1" d="M21.7,56.6c-2.9,2.4-4.9,5.7-5.7,9.5c-1.6-1-3.4-1.6-5.4-1.6C4.7,64.5,0,69.3,0,75.1s4.7,10.6,10.6,10.6h19.2
	c-0.2-0.7-0.3-1.5-0.3-2.3c0-4.4,3.6-8,8-8c1.3,0,2.5,0.3,3.6,0.9c0-0.7,0.1-1.4,0.2-2.1C32.9,70.8,25.9,64.5,21.7,56.6"/>
<path class="st2" d="M32.1,52.9c-4,0-7.6,1.4-10.4,3.8c4.3,7.9,11.2,14.1,19.7,17.5c0.8-4,3.1-7.4,6.4-9.6
	C45.7,57.8,39.5,52.9,32.1,52.9"/>
<path class="st3" d="M74.7,72.6c-0.8,0-1.6,0.1-2.4,0.3c-3.4,1.7-7,2.8-10.9,3.4c0,0.1,0,0.2,0,0.3c0,5-4,9-9,9H29.8
	c1,3.3,4,5.7,7.7,5.7h37.2c5.2,0,9.4-4.2,9.4-9.4S79.9,72.6,74.7,72.6"/>
<path class="st4" d="M55.6,62.2c-2.9,0-5.6,0.8-7.8,2.3c0.4,1.3,0.6,2.7,0.7,4.1c1.2-0.6,2.6-1,4-1c4.9,0,8.8,3.9,9,8.7
	c3.8-0.6,7.5-1.8,10.9-3.4c-0.9,0.2-1.7,0.6-2.5,1.1C68.5,67.3,62.7,62.2,55.6,62.2"/>
<path class="st5" d="M41.3,74.1c-0.1,0.7-0.2,1.4-0.2,2.1c-1.1-0.6-2.3-0.9-3.6-0.9c-4.4,0-8,3.6-8,8c0,0.8,0.1,1.6,0.3,2.3h22.6
	c5,0,9-4,9-9c0-0.1,0-0.2,0-0.3c-1.9,0.3-4,0.5-6,0.5C50.5,76.8,45.7,75.9,41.3,74.1"/>
<path class="st6" d="M47.7,64.5c-3.3,2.1-5.7,5.6-6.4,9.6c4.4,1.7,9.2,2.7,14.2,2.7c2,0,4-0.2,6-0.5c-0.2-4.8-4.1-8.7-9-8.7
	c-1.5,0-2.8,0.4-4,1C48.4,67.2,48.1,65.8,47.7,64.5"/>
<path class="st7" d="M70.8,30.3c-0.6,0-1.2,0.4-1.3,1l-1.8,7.4c-0.1,0.4-0.4,0.8-0.9,1l-7.1,2.7c-1.1,0.4-1.2,1.9-0.2,2.5l6.4,4
	c0.4,0.2,0.6,0.7,0.7,1.1l0.2,3.7c0.8,0.1,1.5,0.1,2.3,0.1c5.3,0,10.3-1.5,14.6-4l-1.3-3.2c-0.2-0.4-0.1-0.9,0.1-1.3l4.2-6.3
	c0.6-0.9-0.1-2.2-1.2-2.2c0,0-0.1,0-0.1,0l-7.6,0.5c0,0-0.1,0-0.1,0c-0.4,0-0.8-0.2-1.1-0.5l-4.7-5.9C71.5,30.4,71.1,30.3,70.8,30.3
	"/>
<path class="st8" d="M83.6,49.8c-4.3,2.5-9.3,4-14.6,4c-0.8,0-1.6,0-2.3-0.1l0.2,3.9c0,0.8,0.7,1.3,1.4,1.3c0.3,0,0.6-0.1,0.9-0.3
	l5.8-4.9c0.2-0.2,0.6-0.3,0.9-0.3c0.1,0,0.2,0,0.4,0.1l7.3,2c0.1,0,0.3,0.1,0.4,0.1c0.9,0,1.7-1,1.3-1.9L83.6,49.8"/>
<path class="st7" d="M80.9,3.8c-0.3,0-0.5,0.1-0.7,0.3l-3.5,4.1c-0.2,0.2-0.5,0.3-0.7,0.3c0,0-0.1,0-0.1,0L70.5,8c0,0-0.1,0-0.1,0
	c-0.7,0-1.2,0.8-0.8,1.5l2.8,4.6c0.2,0.3,0.2,0.6,0.1,0.9l-2.2,4.9c-0.3,0.7,0.2,1.4,0.9,1.4c0.1,0,0.2,0,0.2,0l5.2-1.2
	c0.1,0,0.2,0,0.2,0c0.2,0,0.5,0.1,0.7,0.3l4,3.6c0.2,0.2,0.4,0.3,0.7,0.3c0.5,0,0.9-0.3,1-0.9l0.5-5.3c0-0.3,0.2-0.6,0.5-0.8
	l4.7-2.6c0.7-0.4,0.6-1.4-0.1-1.8l-4.9-2.1c-0.3-0.1-0.5-0.4-0.6-0.7l-1.1-5.2C81.8,4.1,81.4,3.8,80.9,3.8"/>
<path class="st9" d="M50.7,18.7c-0.5,0-0.9,0.4-0.8,0.9l0.3,4.5c0,0.3-0.1,0.5-0.3,0.7l-3.6,2.8c-0.5,0.4-0.4,1.3,0.3,1.5l4.4,1.1
	c0.3,0.1,0.5,0.3,0.6,0.5l1.6,4.3c0.1,0.4,0.5,0.5,0.8,0.5c0.3,0,0.5-0.1,0.7-0.4l2.4-3.8c0.2-0.2,0.4-0.4,0.7-0.4l4.6-0.2
	c0.7,0,1.1-0.8,0.6-1.4l-2.9-3.5c-0.2-0.2-0.2-0.5-0.2-0.8l1.2-4.4c0.2-0.5-0.3-1.1-0.8-1.1c-0.1,0-0.2,0-0.3,0.1l-4.2,1.7
	c-0.1,0-0.2,0.1-0.3,0.1c-0.2,0-0.3,0-0.5-0.1l-3.8-2.5C51,18.8,50.8,18.7,50.7,18.7"/>
</svg>
