<svg width="24" height="24" viewBox="0 0 24 24" fill="none" xmlns="http://www.w3.org/2000/svg">
<circle cx="12" cy="12" r="11.5" fill="#DFEAFF" stroke="#3A6AD0"/>
<path d="M8.13077 10.2122C8.91428 9.42914 9.93248 9.04172 10.9593 9.04049C11.9865 9.04172 13.0043 9.42914 13.7878 10.2122C14.5709 10.9956 14.9583 12.0137 14.9596 13.0404C14.9583 14.0676 14.5709 15.0852 13.7878 15.8687C13.0043 16.6517 11.9861 17.0391 10.9593 17.0404C9.93207 17.0391 8.91428 16.6517 8.13077 15.8687C7.34767 15.0852 6.96021 14.0671 6.95899 13.0404C6.96021 12.0133 7.34767 10.9956 8.13077 10.2122ZM10.9638 7.08168H10.9552C9.43485 7.08168 7.90551 7.6665 6.7456 8.82712C5.58364 9.98816 4.99918 11.519 5 13.0408C4.99877 14.5627 5.58364 16.0935 6.7456 17.2546C7.90551 18.4152 9.43485 19 10.9552 19H10.9638C12.4841 19 14.0135 18.4152 15.1734 17.2546C16.3353 16.0935 16.9198 14.5627 16.919 13.0408C16.9198 11.7827 16.5204 10.5189 15.7255 9.46232L15.0742 10.1135C14.9104 10.2773 14.6954 10.3592 14.4804 10.3592C14.2653 10.3592 14.0507 10.2773 13.8865 10.1135C13.5584 9.78544 13.5584 9.25386 13.8865 8.92623L14.5377 8.27507C13.4826 7.48139 12.2199 7.08209 10.9634 7.08168" fill="#45B0FF"/>
<path d="M17.3207 6.67951H16.1334L14.5381 8.27465C14.7597 8.44134 14.9722 8.62522 15.1733 8.82671C15.3748 9.02779 15.5587 9.24034 15.7254 9.4619L17.3207 7.86676V6.67951ZM18.1984 5.00164C18.1984 5.00164 18.2009 5.00164 18.2025 5.00164H18.1984ZM18.1603 5.00041C18.173 5.00041 18.1853 5.00041 18.198 5.00123C18.1853 5.00082 18.173 5.00041 18.1603 5.00041Z" fill="#45B0FF"/>
<path d="M14.5381 8.27464L13.8869 8.92581C13.5589 9.25384 13.5589 9.78542 13.8869 10.1131C14.0507 10.2769 14.2658 10.3588 14.4808 10.3588C14.6958 10.3588 14.9104 10.2769 15.0747 10.1131L15.7259 9.46189C15.5592 9.24033 15.3753 9.02778 15.1738 8.8267C14.9727 8.62521 14.7601 8.44132 14.5385 8.27464" fill="#007AFF"/>
<path d="M18.9988 5.79778C18.9996 5.8117 19 5.82603 19 5.83996V5.84487C19 5.82931 19 5.81334 18.9988 5.79778ZM18.475 5.06102C18.6892 5.14743 18.86 5.31985 18.9439 5.53567C18.903 5.43001 18.8399 5.33131 18.7547 5.24613C18.6724 5.16381 18.577 5.10197 18.475 5.06102Z" fill="#45B0FF"/>
<path d="M19 5.84447C19 5.85716 18.9996 5.86986 18.9988 5.88214V5.89074C18.9931 5.97634 18.9755 6.05825 18.9464 6.13483L18.9456 6.13729V6.1381C18.9046 6.24581 18.8407 6.34656 18.7543 6.43297L17.3208 7.86635V9.28908C17.3208 9.75267 17.6968 10.1286 18.1604 10.1286C18.6241 10.1286 19 9.75267 19 9.28908V5.84447Z" fill="#45B0FF"/>
<path d="M18.9452 6.13852C18.8247 6.45468 18.5188 6.67952 18.1604 6.67952H17.3208V7.86676L18.7543 6.43338C18.8407 6.34697 18.9046 6.24582 18.9456 6.13852M19 5.83997C19 5.8543 19 5.86822 18.9988 5.88256C18.9996 5.86986 18.9996 5.85758 19 5.84488V5.83997Z" fill="#007AFF"/>
<path d="M18.1554 5.00041H14.5917C14.1281 5.00041 13.7521 5.37636 13.7521 5.83996C13.7521 6.30355 14.1281 6.67951 14.5917 6.67951H16.1333L17.5664 5.24613C17.6516 5.16095 17.7507 5.09788 17.856 5.05693H17.8576L17.8593 5.0557C17.9375 5.0258 18.021 5.00696 18.1087 5.00164H18.1173C18.13 5.00041 18.1427 5 18.1554 5" fill="#45B0FF"/>
<path d="M17.8564 5.05693C17.7508 5.09788 17.6521 5.16095 17.5669 5.24614L16.1338 6.67951H17.3211V5.83996C17.3211 5.48367 17.5431 5.17897 17.8569 5.05734M18.1608 5.00082H18.1558C18.1431 5.00082 18.1305 5.00123 18.1178 5.00205C18.1321 5.00123 18.1464 5.00082 18.1608 5.00082C18.1735 5.00082 18.1857 5.00082 18.1984 5.00164C18.1862 5.00123 18.1735 5.00082 18.1608 5.00082Z" fill="#007AFF"/>
<path d="M18.9984 5.89115C18.9934 5.97429 18.9758 6.0566 18.9463 6.13523C18.975 6.05865 18.993 5.97633 18.9984 5.89115ZM18.9443 5.53936C18.975 5.62004 18.993 5.7044 18.9984 5.78959C18.993 5.70194 18.9746 5.61799 18.9443 5.53936ZM18.1092 5.00246C18.0219 5.00778 17.938 5.02621 17.8597 5.05652C17.94 5.0258 18.0244 5.00778 18.1092 5.00246ZM18.2071 5.00246C18.2972 5.00737 18.3865 5.02662 18.4712 5.06061C18.3889 5.02785 18.3 5.00778 18.2071 5.00246Z" fill="#007AFF"/>
<path d="M18.1603 5.00041C18.146 5.00041 18.1317 5.00041 18.1173 5.00164H18.1087C18.024 5.00737 17.94 5.02539 17.8593 5.05611L17.8577 5.05693H17.856C17.5427 5.17938 17.3203 5.48366 17.3203 5.84037V6.67992H18.1599C18.5183 6.67992 18.8243 6.45508 18.9447 6.13892V6.1381L18.9459 6.13565C18.9754 6.05661 18.9926 5.97429 18.9979 5.89156V5.88296C18.9991 5.86904 18.9996 5.8547 18.9996 5.84037C18.9996 5.82604 18.9996 5.81211 18.9983 5.79819V5.78959C18.9926 5.7044 18.9746 5.62004 18.9439 5.53936V5.53813L18.9426 5.53609C18.8587 5.32026 18.6883 5.14785 18.4737 5.06143L18.4712 5.06061H18.4704C18.3856 5.02662 18.2959 5.00696 18.2062 5.00205H18.2021C18.2021 5.00205 18.1997 5.00205 18.198 5.00164H18.1976C18.1853 5.00123 18.1726 5.00082 18.1599 5.00082" fill="#0054FF"/>
</svg>
