<svg width="85" height="19" viewBox="0 0 85 19" fill="none" xmlns="http://www.w3.org/2000/svg">
<path d="M8.02772 9.55562V0.141781H10.0853V9.55562H8.02772ZM19.2284 9.55562V0.141781H21.286V9.55562H19.2284ZM30.4291 9.55562V0.141781H32.4867V9.55562H30.4291ZM41.6298 9.55562V0.141781H43.6874V9.55562H41.6298ZM52.8305 9.55562V0.141781H54.8881V9.55562H52.8305ZM64.0312 9.55562V0.141781H66.0887V9.55562H64.0312ZM75.2318 9.55562V0.141781H77.2894V9.55562H75.2318ZM84.0501 0.11084H0.949936V18.1108H84.0501V0.11084Z" fill="#F4C600"/>
<path d="M77.2817 0.141602H75.2241V9.55544H77.2817V0.141602Z" fill="#FF5C2E"/>
<path d="M66.081 0.141602H64.0312V9.55544H66.081V0.141602Z" fill="#FF5C2E"/>
<path d="M54.8881 0.141602H52.8305V9.55544H54.8881V0.141602Z" fill="#FF5C2E"/>
<path d="M43.6873 0.141602H41.6298V9.55544H43.6873V0.141602Z" fill="#FF5C2E"/>
<path d="M32.4867 0.141602H30.4291V9.55544H32.4867V0.141602Z" fill="#FF5C2E"/>
<path d="M21.286 0.141602H19.2284V9.55544H21.286V0.141602Z" fill="#FF5C2E"/>
<path d="M10.0853 0.141602H8.02774V9.55544H10.0853V0.141602Z" fill="#FF5C2E"/>
</svg>
