<svg width="41" height="46" viewBox="0 0 41 46" fill="none" xmlns="http://www.w3.org/2000/svg">
<path d="M23.1054 7.50811V10.6555C29.5111 11.8935 34.3523 17.5355 34.3523 24.3046C34.3523 29.7186 31.2603 34.4059 26.7456 36.7033H40.1975C40.1975 25.598 36.3479 9.33127 23.1116 7.50811M18.024 7.50195C4.07925 9.282 0.80249 25.5364 0.80249 36.7033H14.1559C9.64112 34.4059 6.54914 29.7186 6.54914 24.3046C6.54914 17.4554 11.5012 11.7642 18.024 10.6124V7.50195Z" fill="#00A678"/>
<path d="M38.2142 0.11084H3.16153C2.37573 0.11084 1.73872 0.747851 1.73872 1.53364V2.98108C1.73872 3.76688 2.37573 4.40389 3.16153 4.40389H38.2142C39 4.40389 39.637 3.76688 39.637 2.98108V1.53364C39.637 0.747851 39 0.11084 38.2142 0.11084Z" fill="#00A678"/>
<path d="M38.2142 40.8115H33.102V45.1046H8.2676V40.8115H3.15536C2.37313 40.8115 1.73256 41.4459 1.73256 42.2343V43.6879C1.73256 44.4702 2.36697 45.1107 3.15536 45.1107H38.2142C38.9965 45.1107 39.637 44.4763 39.637 43.6879V42.2343C39.637 41.4521 39.0026 40.8115 38.2142 40.8115Z" fill="#00A678"/>
<path d="M33.102 36.7031H26.7455C24.8546 37.664 22.7173 38.206 20.4507 38.206C18.1841 38.206 16.0468 37.664 14.1559 36.7031H8.26758V40.8114H33.102V36.7031Z" fill="#00A678"/>
<path d="M33.102 40.8115H8.26758V45.1046H33.102V40.8115Z" fill="#006C38"/>
<path d="M23.1054 4.40381H18.0178V7.50195C18.8062 7.4034 19.6315 7.34796 20.4938 7.3418C20.5246 7.3418 20.5616 7.3418 20.5924 7.3418C21.467 7.3418 22.3046 7.39724 23.1054 7.50811V4.40381Z" fill="#00A678"/>
<path d="M20.5985 7.3418C20.5677 7.3418 20.5308 7.3418 20.5 7.3418C19.6377 7.3418 18.8123 7.40339 18.0239 7.50194V10.6124C18.8123 10.4707 19.6253 10.403 20.4507 10.403C21.3561 10.403 22.2492 10.4892 23.1054 10.6555V7.5081C22.3047 7.39723 21.467 7.3418 20.5924 7.3418" fill="#006C38"/>
<path d="M20.1428 13.1318C17.174 13.2119 14.507 14.4438 12.5545 16.4024C10.5281 18.4289 9.28389 21.2129 9.28389 24.3048C9.28389 27.3968 10.5342 30.1808 12.5545 32.2073C14.5809 34.2337 17.3649 35.4779 20.4569 35.4779C23.5489 35.4779 26.3329 34.2275 28.3593 32.2073C30.3857 30.1808 31.6299 27.3968 31.6299 24.3048C31.6299 21.2129 30.3796 18.4289 28.3593 16.4024C26.4314 14.4807 23.8199 13.255 20.9127 13.138C21.4054 16.6734 22.1384 23.7567 22.1384 24.4219C22.1384 25.3088 21.4239 26.0233 20.537 26.0233C19.65 26.0233 18.9355 25.3088 18.9355 24.4219C18.9355 23.7628 19.65 16.6673 20.1489 13.138" fill="white"/>
<path d="M20.4507 10.397C19.6192 10.397 18.8123 10.4709 18.0239 10.6064C11.5012 11.7582 6.5491 17.4494 6.5491 24.2986C6.5491 29.7126 9.64108 34.3998 14.1559 36.6973C16.0468 37.6581 18.1841 38.2002 20.4507 38.2002C22.7173 38.2002 24.8546 37.6581 26.7455 36.6973C31.2603 34.3998 34.3523 29.7126 34.3523 24.2986H31.6237C31.6237 27.3905 30.3734 30.1746 28.3531 32.201C26.3267 34.2274 23.5427 35.4716 20.4507 35.4716C17.3587 35.4716 14.5747 34.2212 12.5483 32.201C10.5219 30.1746 9.27768 27.3905 9.27768 24.2986C9.27768 21.2066 10.528 18.4226 12.5483 16.3962C14.5069 14.4375 17.1739 13.2118 20.1366 13.1256C20.3029 11.9368 20.4445 11.1484 20.5246 11.1484C20.5985 11.1484 20.734 11.9368 20.9003 13.1317C23.8075 13.2487 26.4191 14.4683 28.3469 16.3962C30.3734 18.4226 31.6175 21.2066 31.6175 24.2986H34.3461C34.3461 17.5295 29.5049 11.8875 23.0992 10.6495C22.2369 10.4832 21.35 10.397 20.4445 10.397" fill="#3763DA"/>
<path d="M20.4508 13.1315C20.3461 13.1315 20.2413 13.1315 20.1428 13.1315C19.6501 16.6669 18.9294 23.7563 18.9294 24.4153C18.9294 25.3023 19.6439 26.0168 20.5308 26.0168C21.4178 26.0168 22.1323 25.3023 22.1323 24.4153C22.1323 23.7563 21.3993 16.6669 20.9066 13.1315C20.7526 13.1315 20.6047 13.1253 20.4508 13.1191" fill="#1A3696"/>
<path d="M20.5308 11.1543C20.4507 11.1543 20.3091 11.9427 20.1428 13.1314C20.2475 13.1314 20.346 13.1314 20.4507 13.1314C20.6047 13.1314 20.7587 13.1314 20.9065 13.1438C20.7402 11.9488 20.6047 11.1605 20.5308 11.1605" fill="#061580"/>
</svg>
