<svg width="50" height="50" viewBox="0 0 50 50" fill="none" xmlns="http://www.w3.org/2000/svg">
<path d="M17.2761 6.75879C17.25 6.75879 17.2187 6.75879 17.1926 6.75879C3.19716 6.8267 0 22.0863 0 32.3883H6.5197V31.0823H9.62282C6.81747 28.862 5.01515 25.4193 5.01515 21.5639C5.01515 14.8614 10.4482 9.42831 17.1508 9.42831C23.8533 9.42831 29.2864 14.8614 29.2864 21.5639C29.2864 25.4246 27.4841 28.862 24.6787 31.0823H28.1946V32.3883H28.6177L33.3769 23.0267C31.5275 14.7256 26.8833 6.75879 17.2814 6.75879" fill="#00A678"/>
<path d="M32.656 0.448242H2.05311C1.36932 0.448242 0.814995 1.00257 0.814995 1.68636V2.95582C0.814995 3.63961 1.36932 4.19393 2.05311 4.19393H32.656C33.3398 4.19393 33.8941 3.63961 33.8941 2.95582V1.68636C33.8941 1.00257 33.3398 0.448242 32.656 0.448242Z" fill="#00A678"/>
<path d="M6.51973 35.9722H2.05311C1.36875 35.9722 0.814995 36.5259 0.814995 37.2103V38.4797C0.814995 39.1641 1.36875 39.7179 2.05311 39.7179H24.8877L26.2146 37.111H6.51973V35.9722Z" fill="#00A678"/>
<path d="M28.1945 31.0825H24.6787C22.61 32.7229 19.9927 33.6998 17.1508 33.6998C14.3088 33.6998 11.6916 32.7229 9.62281 31.0825H6.51968V37.1111H26.2146L28.1945 33.214V31.0825Z" fill="#00A678"/>
<path d="M19.4703 3.28516H15.0298V9.31378H19.4703V3.28516Z" fill="#00A678"/>
<path d="M16.8791 11.8159C14.288 11.8891 11.9632 12.96 10.255 14.6683C8.4892 16.4393 7.39736 18.8685 7.39736 21.5641C7.39736 24.2598 8.4892 26.6942 10.255 28.46C12.0259 30.2257 14.4551 31.3175 17.1508 31.3175C19.8464 31.3175 22.2809 30.2257 24.0466 28.46C25.8124 26.689 26.9042 24.2598 26.9042 21.5641C26.9042 18.8685 25.8124 16.434 24.0466 14.6683C22.3645 12.9913 20.0867 11.9204 17.5478 11.8211C17.9762 14.9086 18.6188 21.0887 18.6188 21.6686C18.6188 22.4418 17.9919 23.0687 17.2187 23.0687C16.4455 23.0687 15.8186 22.4418 15.8186 21.6686C15.8186 21.0887 16.4455 14.9034 16.8739 11.8159" fill="white"/>
<path d="M17.1508 9.42871C10.4482 9.42871 5.01514 14.8618 5.01514 21.5643C5.01514 25.425 6.81746 28.8624 9.62281 31.0827C11.6916 32.723 14.3088 33.6999 17.1508 33.6999C19.9927 33.6999 22.61 32.723 24.6787 31.0827C27.4841 28.8624 29.2864 25.4197 29.2864 21.5643H26.9042C26.9042 24.26 25.8123 26.6944 24.0466 28.4602C22.2756 30.2259 19.8464 31.3178 17.1508 31.3178C14.4551 31.3178 12.0207 30.2259 10.2549 28.4602C8.48917 26.6892 7.39733 24.26 7.39733 21.5643C7.39733 18.8687 8.48917 16.4342 10.2549 14.6685C11.9632 12.9602 14.2932 11.884 16.8791 11.8161C17.0254 10.7765 17.1508 10.0922 17.2187 10.0922C17.2814 10.0922 17.4015 10.7818 17.5478 11.8214C20.0867 11.9258 22.3644 12.9916 24.0466 14.6685C25.8123 16.4395 26.9042 18.8687 26.9042 21.5643H29.2864C29.2864 14.8618 23.8533 9.42871 17.1508 9.42871Z" fill="#3763DA"/>
<path d="M28.2625 43.8501L23.9264 41.6455L24.4071 40.7L28.7431 42.9045L28.2625 43.8501ZM38.7525 23.2148L34.4165 21.0103L34.8971 20.0647L39.2331 22.2693L38.7525 23.2148ZM41.375 18.0586L37.039 15.8541L37.5196 14.9085L41.8556 17.1131L41.375 18.0586ZM43.9975 12.9024L39.6615 10.6979L40.1421 9.75229L44.4781 11.9569L43.9975 12.9024ZM41.7093 6.62305L33.3716 23.0268C33.5963 24.0402 33.7791 25.0537 33.9254 26.0672L36.6106 27.4307L36.13 28.3763L34.0926 27.3419C34.2963 29.0972 34.3851 30.8055 34.3851 32.3884H33.6015L33.9933 32.5869L33.5127 33.5325L31.2611 32.3884H28.6229L28.1998 33.219V35.9721H32.6612C33.3455 35.9721 33.8993 36.5259 33.8993 37.2102V38.4797C33.8993 39.1641 33.3455 39.7178 32.6612 39.7178H24.8929L22.2599 44.8949L30.5506 49.1108L50 10.8389L41.7093 6.62305Z" fill="#F4C600"/>
<path d="M33.3717 23.0269L28.6125 32.3885H31.2507L29.1662 31.328L29.6469 30.3824L33.5911 32.3885H34.3747C34.3747 30.8003 34.2859 29.0921 34.0821 27.342L31.7835 26.1718L32.2641 25.2262L33.915 26.0673C33.7687 25.059 33.5858 24.0403 33.3612 23.0269" fill="#008100"/>
<path d="M32.656 35.9722H28.1946V36.1289L31.3708 37.7431L30.8902 38.6887L27.7871 37.111H26.2199L24.8929 39.7179H32.6612C33.3455 39.7179 33.8993 39.1641 33.8993 38.4797V37.2103C33.8993 36.5259 33.3455 35.9722 32.6612 35.9722" fill="#008100"/>
<path d="M28.1946 33.2192L26.2146 37.1164H27.7819L26.549 36.4895L27.0296 35.544L28.1946 36.1343V35.9723V33.2192Z" fill="#008100"/>
<path d="M40.1421 9.74707L39.6615 10.6979L43.9975 12.8972L44.4781 11.9516L40.1421 9.74707Z" fill="#FF5C2E"/>
<path d="M37.5196 14.9087L37.039 15.8543L41.375 18.0588L41.8556 17.1133L37.5196 14.9087Z" fill="#FF5C2E"/>
<path d="M34.8971 20.0649L34.4165 21.0105L38.7525 23.2151L39.2331 22.2695L34.8971 20.0649Z" fill="#FF5C2E"/>
<path d="M33.9254 26.062C33.9881 26.4904 34.0403 26.9135 34.0925 27.3367L36.1299 28.3711L36.6106 27.4255L33.9254 26.062Z" fill="#FF5C2E"/>
<path d="M32.2746 25.2261L31.794 26.1716L34.0926 27.3418C34.0456 26.9187 33.9881 26.4955 33.9254 26.0672L32.2746 25.2261Z" fill="#003C16"/>
<path d="M33.6015 32.3887H31.2559L33.5075 33.5328L33.9881 32.5872L33.6015 32.3887Z" fill="#FF5C2E"/>
<path d="M29.6521 30.3823L29.1714 31.3279L31.2559 32.3884H33.6015L29.6521 30.3823Z" fill="#003C16"/>
<path d="M28.1946 36.1343V37.1164H27.7819L30.885 38.6941L31.3656 37.7433L28.1946 36.1343Z" fill="#003C16"/>
<path d="M27.0295 35.5439L26.5489 36.4895L27.7818 37.1164H28.1945V36.1343L27.0295 35.5439Z" fill="#003C16"/>
<path d="M24.4071 40.7002L23.9265 41.6458L28.2625 43.8503L28.7431 42.9048L24.4071 40.7002Z" fill="#FF5C2E"/>
<path d="M17.1508 11.8109C17.062 11.8109 16.9679 11.8109 16.8791 11.8109C16.4455 14.8931 15.8239 21.0837 15.8239 21.6636C15.8239 22.4367 16.4508 23.0636 17.2239 23.0636C17.9971 23.0636 18.624 22.4367 18.624 21.6636C18.624 21.0889 17.9814 14.9036 17.553 11.8161C17.4224 11.8109 17.2866 11.8057 17.156 11.8057" fill="#1A3696"/>
<path d="M17.2187 10.0918C17.1508 10.0918 17.0254 10.7762 16.8792 11.8158C16.968 11.8158 17.0568 11.8158 17.1508 11.8158C17.2866 11.8158 17.4172 11.8158 17.5478 11.8262C17.4016 10.7866 17.2814 10.097 17.2187 10.097" fill="#061580"/>
</svg>
