<?xml version="1.0" encoding="utf-8"?>
<!-- Generator: Adobe Illustrator 28.0.0, SVG Export Plug-In . SVG Version: 6.00 Build 0)  -->
<svg version="1.1" id="Layer_1" xmlns="http://www.w3.org/2000/svg" xmlns:xlink="http://www.w3.org/1999/xlink" x="0px" y="0px"
	 width="83.7px" height="94.1px" viewBox="0 0 83.7 94.1" style="enable-background:new 0 0 83.7 94.1;" xml:space="preserve">
<style type="text/css">
	.st0{fill:#004C43;}
	.st1{fill:#17A27B;}
	.st2{fill:#02673B;}
	.st3{fill:#007D40;}
	.st4{fill:#FC8E2C;}
	.st5{fill:#F94F08;}
	.st6{fill:#E8E8E8;}
	.st7{fill:#3767D3;}
	.st8{fill:#64BBF8;}
</style>
<path class="st0" d="M14.4,23.8c0.5-0.5,0.5-1.4-0.1-2L2.4,9.8c-0.6-0.6-1.5-0.6-2-0.1c-0.5,0.5-0.5,1.4,0.1,2l11.9,11.9
	C13,24.2,13.9,24.3,14.4,23.8z"/>
<path class="st0" d="M19.4,35.2l-3.3,3.3c0.7,0.4,1.4,1,1.8,1.7c0,0,0.1,0.1,0.2,0.1l3.2-3.2L19.4,35.2 M28.4,30.1h-3.8l-3.3,3.3
	l1.9,1.9L28.4,30.1"/>
<path class="st0" d="M18.1,30.1h-3.8l5.2,5.2l1.9,1.9l3.4,3.4c0.5-0.8,1.1-1.5,1.9-1.9l-3.4-3.4l-1.9-1.9L18.1,30.1"/>
<path class="st1" d="M22.3,14.5H7.9c-1.7,0-3,1.4-3,3v9.5c0,1.7,1.4,3,3,3h26.8c1.7,0,3-1.4,3-3v-7.4H22.2L22.3,14.5"/>
<path class="st1" d="M22.6,0l-0.3,14.5h12.4c1.7,0,3,1.4,3,3v2.1h4.5C42.2,8.8,33.4,0,22.6,0"/>
<path class="st2" d="M34.7,14.5H22.3l-0.1,5.2h15.5v-2.1C37.7,15.9,36.4,14.5,34.7,14.5"/>
<path class="st0" d="M13.7,37.9c-2.7,0-4.9,2.2-4.9,4.9c0,2.2,1.4,4,3.3,4.7c-1-0.8-1.7-2.2-1.7-3.6c0-2.6,2.1-4.6,4.6-4.6
	c1.1,0,2.1,0.4,2.9,1c-0.4-0.7-1.1-1.3-1.8-1.7C15.4,38.1,14.6,37.9,13.7,37.9"/>
<path class="st0" d="M29,38c-0.9,0-1.7,0.2-2.4,0.6c-0.8,0.5-1.5,1.1-1.9,1.9c-0.4,0.7-0.6,1.5-0.6,2.4c0,2.6,2,4.7,4.5,4.9
	c-1.6-0.7-2.7-2.3-2.7-4.2c0-2.6,2.1-4.6,4.6-4.6c0.7,0,1.3,0.2,1.9,0.4C31.6,38.5,30.3,38,29,38"/>
<path class="st1" d="M18.1,40.4L18.1,40.4c0.4,0.8,0.6,1.6,0.6,2.5c0,2.7-2.2,4.9-4.9,4.9c-0.6,0-1.1-0.1-1.6-0.3
	c0.8,0.6,1.8,1,2.9,1c2.6,0,4.6-2.1,4.6-4.6C19.7,42.5,19.1,41.2,18.1,40.4"/>
<path class="st3" d="M17.9,40.3c0,0.1,0.1,0.1,0.1,0.2l0-0.1C18,40.3,18,40.3,17.9,40.3"/>
<path class="st3" d="M15,39.2c-2.6,0-4.6,2.1-4.6,4.6c0,1.5,0.7,2.8,1.7,3.6c0.5,0.2,1,0.3,1.6,0.3c2.7,0,4.9-2.2,4.9-4.9
	c0-0.9-0.2-1.7-0.6-2.4c0-0.1-0.1-0.1-0.1-0.2C17.1,39.6,16.1,39.2,15,39.2"/>
<path class="st1" d="M32.4,39.4c0.9,0.9,1.5,2.2,1.5,3.5c0,2.7-2.2,4.9-4.9,4.9c-0.1,0-0.3,0-0.4,0c0.6,0.3,1.3,0.4,2,0.4
	c2.6,0,4.6-2.1,4.6-4.6C35.2,41.8,34.1,40.1,32.4,39.4"/>
<path class="st3" d="M30.5,39c-2.6,0-4.6,2.1-4.6,4.6c0,1.9,1.1,3.5,2.7,4.2c0.1,0,0.3,0,0.4,0c2.7,0,4.9-2.2,4.9-4.9
	c0-1.4-0.6-2.6-1.5-3.5C31.9,39.2,31.2,39,30.5,39"/>
<path class="st4" d="M76.6,80.4L76.6,80.4 M68.5,51H17.6c-2.3,0-4.3,0.9-5.8,2.4c-1.5,1.5-2.4,3.5-2.4,5.8v21.2
	c0,2.2,0.9,4.3,2.4,5.8c1.1,1.1,2.6,2,4.3,2.3l1.1-1.2c0.6-0.7,1.5-1.1,2.2-1.1c0.4,0,0.7,0.1,1,0.3c0.5,0.5,0.6,1.3,0.3,2.2h44.5
	c-0.3-0.8-0.2-1.7,0.3-2.2c0.3-0.2,0.6-0.3,1-0.3c0.7,0,1.6,0.4,2.2,1.1l1.1,1.2c1.7-0.3,3.2-1.1,4.3-2.3c1.5-1.5,2.4-3.5,2.4-5.8
	h-5.4c0,0.8-0.3,1.4-0.8,1.9c-0.5,0.5-1.2,0.8-1.9,0.8h-0.1v2.4h-2.7v-2.4h-3.2v2.4h-2.7v-2.4h-3.2v2.4h-2.7v-2.4h-3.2v2.4h-2.7
	v-2.4h-3.2v2.4h-2.7v-2.4h-3.2v2.4h-2.7v-2.4h-3.2v2.4h-2.7v-2.4h-3.2v2.4h-2.7v-2.4h-3.2v2.4h-2.7v-2.4h-0.1
	c-0.8,0-1.4-0.3-1.9-0.8c-0.5-0.5-0.8-1.2-0.8-1.9V59.2c0-0.8,0.3-1.4,0.8-1.9c0.5-0.5,1.2-0.8,1.9-0.8h0.1v-2.4h2.7v2.4h3.2v-2.4
	h2.7v2.4h3.2v-2.4h2.7v2.4h3.2v-2.4h2.7v2.4h3.2v-2.4h2.7v2.4h3.2v-2.4h2.7v2.4h3.2v-2.4h2.7v2.4h3.2v-2.4h2.7v2.4h3.2v-2.4h2.7v2.4
	h0.1c0.8,0,1.4,0.3,1.9,0.8c0.5,0.5,0.8,1.2,0.8,1.9v21.2h5.4V59.2c0-2.2-0.9-4.3-2.4-5.8C72.7,52,70.7,51,68.5,51"/>
<polyline class="st4" points="20.5,56.5 17.7,56.5 17.7,83.1 20.5,83.1 20.5,56.5 "/>
<path class="st5" d="M20.5,83.1h-2.7v2.4h2.7V83.1 M20.5,54.1h-2.7v2.4h2.7V54.1"/>
<polyline class="st4" points="26.5,56.5 23.7,56.5 23.7,83.1 26.5,83.1 26.5,56.5 "/>
<path class="st5" d="M26.5,83.1h-2.7v2.4h2.7V83.1 M26.5,54.1h-2.7v2.4h2.7V54.1"/>
<polyline class="st4" points="32.4,56.5 29.7,56.5 29.7,83.1 32.4,83.1 32.4,56.5 "/>
<path class="st5" d="M32.4,83.1h-2.7v2.4h2.7V83.1 M32.4,54.1h-2.7v2.4h2.7V54.1"/>
<polyline class="st4" points="38.4,56.5 35.7,56.5 35.7,83.1 38.4,83.1 38.4,56.5 "/>
<path class="st5" d="M38.4,83.1h-2.7v2.4h2.7V83.1 M38.4,54.1h-2.7v2.4h2.7V54.1"/>
<polyline class="st4" points="44.4,56.5 41.7,56.5 41.7,83.1 44.4,83.1 44.4,56.5 "/>
<path class="st5" d="M44.4,83.1h-2.7v2.4h2.7V83.1 M44.4,54.1h-2.7v2.4h2.7V54.1"/>
<polyline class="st4" points="50.4,56.5 47.7,56.5 47.7,83.1 50.4,83.1 50.4,56.5 "/>
<path class="st5" d="M50.4,83.1h-2.7v2.4h2.7V83.1 M50.4,54.1h-2.7v2.4h2.7V54.1"/>
<polyline class="st4" points="56.4,56.5 53.7,56.5 53.7,83.1 56.4,83.1 56.4,56.5 "/>
<path class="st5" d="M56.4,83.1h-2.7v2.4h2.7V83.1 M56.4,54.1h-2.7v2.4h2.7V54.1"/>
<polyline class="st4" points="62.4,56.5 59.7,56.5 59.7,83.1 62.4,83.1 62.4,56.5 "/>
<path class="st5" d="M62.4,83.1h-2.7v2.4h2.7V83.1 M62.4,54.1h-2.7v2.4h2.7V54.1"/>
<polyline class="st4" points="68.4,56.5 65.6,56.5 65.6,83.1 68.4,83.1 68.4,56.5 "/>
<path class="st5" d="M68.4,83.1h-2.7v2.4h2.7V83.1 M68.4,54.1h-2.7v2.4h2.7V54.1"/>
<path class="st4" d="M16.2,88.4l-1.7,2c-1,1.1-1.1,2.6-0.4,3.3c0.3,0.2,0.6,0.3,1,0.3c0.7,0,1.6-0.4,2.2-1.1l2.8-3.2
	c0.3-0.4,0.5-0.8,0.7-1.1h-3.2C17.1,88.6,16.6,88.5,16.2,88.4"/>
<path class="st5" d="M19.5,86c-0.7,0-1.6,0.4-2.2,1.1l-1.1,1.2c0.5,0.1,1,0.1,1.5,0.1h3.2c0.3-0.8,0.2-1.7-0.3-2.2
	C20.2,86.1,19.9,86,19.5,86"/>
<path class="st4" d="M70,88.4c-0.5,0.1-1,0.1-1.5,0.1h-3.2c0.1,0.4,0.4,0.8,0.7,1.1l2.8,3.2c0.6,0.7,1.5,1.1,2.2,1.1
	c0.4,0,0.7-0.1,1-0.3c0.8-0.7,0.6-2.2-0.3-3.3L70,88.4"/>
<path class="st5" d="M66.6,86c-0.4,0-0.7,0.1-1,0.3c-0.5,0.5-0.6,1.3-0.3,2.2h3.2c0.5,0,1-0.1,1.5-0.1l-1.1-1.2
	C68.2,86.5,67.4,86.1,66.6,86"/>
<path class="st6" d="M76.7,19.6C72.4,22.1,68,23,64,23c-7.6,0-13.5-3.1-13.5-3.1c-0.9,1-1.6,2.1-2.2,3.3l5.6,1.5
	c0.8,0.2,1.3,1.1,1.1,1.9l-0.6,2.3c-0.2,0.7-0.8,1.1-1.5,1.1c-0.1,0-0.3,0-0.4,0l-6-1.6c-1,4.7-0.7,8.7-0.7,8.7
	c8.7,1,10.2,9.6,10.2,9.6c2.1,1,4.6,1.3,6.9,1.3c4.7,0,8.8-1.3,8.8-1.3c1.4-9.8,10.7-10.3,10.7-10.3c-0.1-3.3-0.7-6.1-1.4-8.5
	l-5.9,2c-0.2,0-0.3,0.1-0.5,0.1c-0.6,0-1.2-0.4-1.4-1l-0.8-2.2c-0.3-0.8,0.2-1.7,1-1.9l5.5-1.9C77.7,20.7,76.7,19.5,76.7,19.6"/>
<path class="st7" d="M45.9,22.6c-0.7,0-1.3,0.5-1.5,1.1L43.8,26c-0.2,0.8,0.3,1.7,1.1,1.9l1.6,0.4c0.4-1.7,1-3.5,1.8-5.1l-2-0.5
	C46.2,22.6,46,22.6,45.9,22.6"/>
<path class="st8" d="M48.3,23.2c-0.8,1.7-1.4,3.4-1.8,5.1l6,1.6c0.1,0,0.3,0,0.4,0c0.7,0,1.3-0.5,1.5-1.1l0.6-2.3
	c0.2-0.8-0.3-1.7-1.1-1.9L48.3,23.2"/>
<path class="st7" d="M81.4,22.1c-0.2,0-0.3,0-0.5,0.1l-2,0.7c0.7,1.3,1.5,3,2.1,5l1.6-0.5c0.8-0.3,1.2-1.1,1-1.9l-0.8-2.2
	C82.6,22.5,82,22.1,81.4,22.1"/>
<path class="st8" d="M78.9,22.8l-5.5,1.9c-0.8,0.3-1.2,1.1-1,1.9l0.8,2.2c0.2,0.6,0.8,1,1.4,1c0.2,0,0.3,0,0.5-0.1l5.9-2
	C80.4,25.8,79.6,24.1,78.9,22.8"/>
</svg>
