<svg width="50" height="27" viewBox="0 0 50 27" fill="none" xmlns="http://www.w3.org/2000/svg">
<path d="M16.0319 6.23456C15.6417 6.23456 15.2346 6.39996 14.8232 6.78587C13.9963 7.57042 13.6358 8.74512 13.1184 9.73323C12.5841 10.7553 11.8971 11.5525 11.104 12.1717C11.6172 13.2404 12.2915 14.3981 13.1608 15.6534C13.1608 15.6534 16.1888 20.2462 24.4414 26.7685C32.694 20.2462 35.7219 15.6534 35.7219 15.6534C36.5913 14.4024 37.2656 13.2446 37.7787 12.1759C37.6939 12.1759 37.6091 12.1759 37.5243 12.1759C37.3546 12.1759 37.185 12.1759 37.0196 12.1759C36.85 12.1759 36.6803 12.1759 36.515 12.1759C34.4963 12.1759 32.5837 12.2989 31.1376 14.0164C29.806 15.6025 28.9239 17.5363 27.1131 18.6771C26.2819 19.1987 25.4761 19.4277 24.7213 19.4277C22.0623 19.4277 19.9885 16.6118 19.3779 13.9062C18.9198 11.8791 19.0259 9.60176 17.9911 7.74005C17.5246 6.90461 16.8206 6.23456 16.0319 6.23456ZM31.8416 0.11084C27.728 0.11084 25.5397 3.08365 24.4456 7.04456C23.3557 3.08365 21.1632 0.11084 17.0539 0.11084C16.1718 0.11084 15.2007 0.246546 14.132 0.543402C14.132 0.543402 7.8047 2.7359 10.328 10.2633C11.7911 8.70271 12.143 6.36603 13.9284 5.02593C14.6069 4.51704 15.3321 4.28379 16.0403 4.28379C17.1514 4.28379 18.2244 4.8563 19.0301 5.84441C20.3363 7.44743 20.6543 9.49998 20.9342 11.4889C21.2056 13.4015 21.5491 15.7509 23.22 16.9977C23.695 17.354 24.1657 17.5024 24.6195 17.5024C26.1504 17.5024 27.5075 15.8103 28.3429 14.5932C29.4625 12.9647 30.6499 11.2684 32.6219 10.6323C33.7669 10.2591 35.0137 10.2888 36.2011 10.2718C36.9942 10.2633 37.7872 10.2506 38.5802 10.2336C41.0738 2.72742 34.7677 0.543402 34.7677 0.543402C33.6991 0.246546 32.7237 0.11084 31.8416 0.11084Z" fill="#FF5C2E"/>
<path d="M10.3237 10.2591C10.0651 10.5348 9.77668 10.785 9.43741 11.0013C7.83863 12.0233 5.97267 12.282 4.09824 12.282C3.02955 12.282 1.95663 12.1972 0.930355 12.1251C0.90067 12.1251 0.875225 12.1251 0.845539 12.1251C-0.312201 12.1251 -0.278274 13.9741 0.930355 14.0631C1.8082 14.1267 2.71573 14.1734 3.62751 14.1734C6.3289 14.1734 9.06846 13.762 11.104 12.1717C10.7817 11.5017 10.5231 10.8613 10.3195 10.2591M49.1314 9.94955C49.1102 9.94955 49.0889 9.94955 49.0677 9.94955C43.4868 10.2634 45.8023 10.0768 40.2129 10.1955C39.6701 10.2082 39.1231 10.2167 38.5802 10.2252C38.3767 10.8359 38.1137 11.4847 37.783 12.1717C37.8847 12.1717 37.9865 12.1717 38.0883 12.1717C44.3859 12.0657 42.7786 12.2396 49.0677 11.8834C50.2849 11.8155 50.3145 9.94531 49.1314 9.94531" fill="#1A3696"/>
<path d="M16.0403 4.28369C15.3279 4.28369 14.6069 4.51694 13.9284 5.02583C12.143 6.36593 11.7868 8.69837 10.328 10.2632C10.5315 10.8654 10.7902 11.5015 11.1125 12.1758C11.9055 11.5567 12.5925 10.7594 13.1269 9.73737C13.6443 8.74926 14.0005 7.5788 14.8317 6.79001C15.2388 6.40409 15.6502 6.2387 16.0403 6.2387C16.8291 6.2387 17.5373 6.90875 17.9996 7.74419C19.0386 9.6059 18.9326 11.8832 19.3863 13.9103C19.997 16.616 22.0707 19.4319 24.7297 19.4319C25.4888 19.4319 26.2904 19.2028 27.1215 18.6812C28.9324 17.5405 29.8145 15.6066 31.1461 14.0206C32.5922 12.3031 34.5048 12.1801 36.5234 12.1801C36.6931 12.1801 36.8627 12.1801 37.0281 12.1801C37.1977 12.1801 37.3631 12.1801 37.5327 12.1801C37.6175 12.1801 37.7024 12.1801 37.7872 12.1801C38.118 11.4931 38.3809 10.8442 38.5845 10.2335C37.7914 10.2463 36.9984 10.259 36.2054 10.2717C35.0179 10.2887 33.7711 10.259 32.6261 10.6322C30.6541 11.2725 29.471 12.9646 28.3471 14.5931C27.5117 15.8102 26.1546 17.5023 24.6237 17.5023C24.1699 17.5023 23.6992 17.3539 23.2242 16.9976C21.5491 15.7508 21.2099 13.4014 20.9385 11.4888C20.6586 9.50412 20.3405 7.44733 19.0343 5.84431C18.2286 4.8562 17.1514 4.28369 16.0446 4.28369" fill="#FF0000"/>
</svg>
